<svg width="845" height="758" viewBox="0 0 645 558" fill="none" xmlns="http://www.w3.org/2000/svg">

<path d="M52.0036 0.686654C50.9591 0.434239 49.9582 1.6615 50.5065 2.61894C50.933 3.46322 52.2473 3.58508 52.7696 2.78431C53.3875 2.06188 52.8914 0.89555 52.0036 0.686654Z" fill="url(#paint0_linear)" stroke="url(#paint1_linear)" stroke-width="0.0816433" stroke-miterlimit="10.43"/>
<path d="M109.929 2.84524C109.015 2.49708 108.014 3.4197 108.266 4.36844C108.371 5.49995 110.094 5.80459 110.651 4.85586C111.165 4.16824 110.755 3.07154 109.929 2.84524Z" fill="url(#paint2_linear)" stroke="url(#paint3_linear)" stroke-width="0.0816433" stroke-miterlimit="10.43"/>
<path d="M32.263 7.44965C31.4187 7.16242 30.47 7.97188 30.6353 8.85969C30.644 9.81713 31.8975 10.3394 32.6286 9.78231C33.5077 9.23396 33.2726 7.71077 32.263 7.44965Z" fill="url(#paint4_linear)" stroke="url(#paint5_linear)" stroke-width="0.0816433" stroke-miterlimit="10.43"/>
<path d="M18.7631 10.2001C17.9188 9.59954 16.6133 10.3742 16.7264 11.41C16.6742 12.5241 18.18 13.1682 18.9633 12.4022C19.7032 11.8452 19.5552 10.644 18.7631 10.2001Z" fill="url(#paint6_linear)" stroke="url(#paint7_linear)" stroke-width="0.0816433" stroke-miterlimit="10.43"/>
<path d="M223.838 11.5144C223.202 11.2707 222.384 11.6015 222.201 12.2804C221.792 13.2987 223.15 14.3954 224.038 13.7165C224.908 13.2465 224.769 11.8278 223.838 11.5144Z" fill="url(#paint8_linear)" stroke="url(#paint9_linear)" stroke-width="0.0816433" stroke-miterlimit="10.43"/>
<path d="M189.37 18.1904C188.508 17.7639 187.411 18.6169 187.603 19.5569C187.716 20.4795 188.926 20.906 189.648 20.3664C190.379 19.8267 190.214 18.5472 189.37 18.1904Z" fill="url(#paint10_linear)" stroke="url(#paint11_linear)" stroke-width="0.0816433" stroke-miterlimit="10.43"/>

<path d="M125.256 22.2203C125.639 21.2977 124.873 20.1313 123.846 20.201C122.871 20.1139 122.088 21.1671 122.358 22.0897C122.462 22.6033 122.915 22.9079 123.307 23.1951C122.619 27.1032 121.879 30.9939 121.148 34.8846C120.443 34.989 119.677 35.4416 119.607 36.225C119.399 37.4 120.887 38.3836 121.87 37.6786C122.767 37.1476 122.697 35.8594 122.018 35.1805C123.124 33.2395 124.16 31.255 125.282 29.3227C125.979 29.4446 126.771 29.2444 127.084 28.5568C127.667 27.5297 126.553 26.1632 125.422 26.5201C124.308 26.8073 124.012 28.3392 124.882 29.0616C123.838 31.0896 122.671 33.048 121.583 35.05C122.271 31.1245 123.046 27.2164 123.777 23.2996C124.386 23.1516 125.074 22.8818 125.256 22.2203Z" fill="url(#paint12_linear)" stroke="url(#paint13_linear)" stroke-width="0.0816433" stroke-miterlimit="10.43"/>

<path d="M86.776 21.1062C85.923 20.5752 84.7218 21.3586 84.7567 22.3335C84.7131 23.3083 85.9056 24.083 86.7673 23.5694C87.7421 23.1255 87.7421 21.5414 86.776 21.1062Z" fill="url(#paint14_linear)" stroke="url(#paint15_linear)" stroke-width="0.0816433" stroke-miterlimit="10.43"/>
<path d="M254.484 27.434C253.936 26.7203 252.796 27.0336 252.474 27.8257C252.482 28.0781 252.482 28.3392 252.474 28.6003C250.411 29.6709 248.365 30.7502 246.311 31.8469C246.12 31.6902 245.928 31.5336 245.728 31.3856C244.997 31.2376 244.118 31.7686 244.214 32.5955C244.17 33.2221 244.745 33.579 245.258 33.7531C246.076 33.6747 246.668 32.9436 246.494 32.1254C248.505 31.0026 250.567 29.993 252.569 28.8527C252.909 29.0181 253.205 29.3228 253.596 29.2966C254.519 29.3663 255.154 28.0868 254.484 27.434Z" fill="url(#paint16_linear)" stroke="url(#paint17_linear)" stroke-width="0.0816433" stroke-miterlimit="10.43"/>
<path d="M200.328 32.8392C199.353 32.2734 198.022 33.1786 198.152 34.284C198.143 35.4591 199.736 36.1641 200.598 35.3633C201.468 34.754 201.303 33.2569 200.328 32.8392Z" fill="url(#paint18_linear)" stroke="url(#paint19_linear)" stroke-width="0.0816433" stroke-miterlimit="10.43"/>
<path d="M82.5459 38.5664C81.6842 38.3314 80.7355 39.193 80.9444 40.0809C81.0749 41.1079 82.572 41.5344 83.2248 40.7162C83.9472 40.0547 83.4947 38.7404 82.5459 38.5664Z" fill="url(#paint20_linear)" stroke="url(#paint21_linear)" stroke-width="0.0816433" stroke-miterlimit="10.43"/>
<path d="M221.044 40.2724C221.035 39.6196 220.391 39.2627 219.834 39.1147C219.329 39.2453 218.929 39.5586 218.65 39.9938C218.65 40.194 218.659 40.5857 218.659 40.7772C218.946 41.0818 219.198 41.4996 219.651 41.5257C220.382 41.6737 221.148 41.0035 221.044 40.2724Z" fill="url(#paint22_linear)" stroke="url(#paint23_linear)" stroke-width="0.0816433" stroke-miterlimit="10.43"/>
<path d="M35.0308 45.4773C34.1778 44.7288 32.7591 45.4686 32.7852 46.574C27.5106 47.6969 22.2099 48.6891 16.9266 49.7684C15.5862 50.0034 14.2544 50.369 12.8879 50.5169C12.4701 49.5682 11.0079 49.3767 10.4508 50.2906C9.80671 51.1175 10.5639 52.4579 11.5823 52.397C12.4092 52.4579 12.914 51.6572 13.0185 50.9347C19.6248 49.6378 26.2137 48.2974 32.82 46.9918C33.1856 47.4183 33.5947 47.9841 34.2388 47.8883C35.4574 47.958 35.9883 46.1649 35.0308 45.4773Z" fill="url(#paint24_linear)" stroke="url(#paint25_linear)" stroke-width="0.0816433" stroke-miterlimit="10.43"/>
<path d="M173.999 52.2577C174.094 51.2307 172.623 50.6127 171.953 51.4047C171.431 51.8312 171.57 52.5798 171.884 53.0933C171.292 53.2239 170.665 53.7113 170.752 54.3902C170.708 55.3302 171.979 55.9917 172.71 55.3738C173.328 54.9734 173.398 53.9985 172.867 53.4937C173.442 53.3631 174.06 52.9105 173.999 52.2577Z" fill="url(#paint26_linear)" stroke="url(#paint27_linear)" stroke-width="0.0816433" stroke-miterlimit="10.43"/>
<path d="M310.851 52.6842C310.973 52.0053 310.303 51.3351 309.624 51.4396C309.163 51.4483 308.919 51.8922 308.64 52.1881C308.649 52.3796 308.658 52.7713 308.667 52.9627C308.893 53.1891 309.128 53.4154 309.354 53.6417C309.554 53.6417 309.946 53.6417 310.146 53.6504C310.425 53.3718 310.851 53.1368 310.851 52.6842Z" fill="url(#paint28_linear)" stroke="url(#paint29_linear)" stroke-width="0.0816433" stroke-miterlimit="10.43"/>
<path d="M213.523 52.8931C213.384 52.0053 212.261 51.3786 211.548 52.0749C210.816 52.6494 211.199 53.6678 211.878 54.0943C212.688 54.2509 213.41 53.6939 213.523 52.8931Z" fill="url(#paint30_linear)" stroke="url(#paint31_linear)" stroke-width="0.0816433" stroke-miterlimit="10.43"/>
<path d="M394.723 57.8109C394.784 57.2625 394.331 56.9231 393.948 56.6358C393.757 56.6358 393.365 56.6445 393.173 56.6445C392.808 56.9492 392.355 57.2886 392.408 57.837C392.364 58.3766 392.825 58.6987 393.173 59.0207C393.913 59.1339 394.784 58.6465 394.723 57.8109Z" fill="url(#paint32_linear)" stroke="url(#paint33_linear)" stroke-width="0.0816433" stroke-miterlimit="10.43"/>
<path d="M363.684 59.5256C363.745 58.9859 363.275 58.6465 362.927 58.3244C362.17 58.1851 361.282 58.69 361.308 59.5343C361.282 60.0826 361.761 60.4221 362.152 60.7093C362.344 60.7093 362.727 60.7006 362.918 60.6919C363.284 60.3873 363.737 60.0478 363.684 59.5256Z" fill="url(#paint34_linear)" stroke="url(#paint35_linear)" stroke-width="0.0816433" stroke-miterlimit="10.43"/>
<path d="M154.632 60.1522C153.718 59.3254 152.134 60.2741 152.317 61.4578C152.352 62.4066 153.37 62.8853 154.214 62.8069C154.615 63.6948 155.059 64.5564 155.39 65.4704C154.78 65.9491 154.519 66.8543 154.998 67.5158C155.45 68.3079 156.504 68.3253 157.226 67.9249C161.926 72.3291 166.661 76.6985 171.335 81.1288C171.109 81.7033 171.004 82.417 171.457 82.9131C172.032 83.6791 173.328 83.6269 173.816 82.8C174.329 82.1037 174.007 81.0505 173.259 80.6762C172.789 80.389 172.232 80.5805 171.736 80.6849C166.121 74.5834 160.56 68.421 154.954 62.3021C155.346 61.6058 155.355 60.6309 154.632 60.1522ZM157.365 65.6096C156.869 65.3746 156.356 65.1744 155.799 65.2005C155.407 64.3214 154.98 63.451 154.615 62.5458C155.511 63.5816 156.469 64.5651 157.365 65.6096ZM157.644 65.6183L157.757 65.9752C161.021 69.7092 164.503 73.2691 167.714 77.0554C165.895 75.5148 164.241 73.8001 162.457 72.2159C160.829 70.6144 159.08 69.1434 157.496 67.5071C157.713 67.0632 158.009 66.097 157.313 65.9665C157.426 65.8533 157.539 65.7315 157.644 65.6183Z" fill="url(#paint36_linear)" stroke="url(#paint37_linear)" stroke-width="0.0816433" stroke-miterlimit="10.43"/>
<path d="M204.349 62.7634C204.071 61.6406 202.208 61.5797 201.947 62.746C201.695 63.4772 202.226 64.069 202.791 64.4346C201.825 70.8494 200.998 77.2817 200.023 83.6965C199.258 83.8184 198.535 84.5756 198.857 85.3851C199.127 86.212 200.18 86.4383 200.842 85.9334C204.219 88.8754 207.596 91.8173 210.964 94.768C210.747 95.3511 210.764 96.1171 211.365 96.4652C212.096 97.031 213.227 96.3434 213.184 95.4556C213.236 94.9159 212.766 94.5765 212.418 94.2544C212.009 94.2718 211.591 94.298 211.234 94.533C207.814 91.6345 204.489 88.6404 201.111 85.6984C201.381 84.9673 201.172 84.1491 200.441 83.8009C200.511 82.1907 200.859 80.6066 201.051 79.0051C201.738 74.1482 202.434 69.2914 203.131 64.4433C203.914 64.3301 204.61 63.5816 204.349 62.7634Z" fill="url(#paint38_linear)" stroke="url(#paint39_linear)" stroke-width="0.0816433" stroke-miterlimit="10.43"/>
<path d="M245.45 63.1986C244.718 62.6764 243.578 63.3292 243.622 64.2257C243.552 65.1831 244.858 65.8534 245.571 65.1831C246.268 64.7044 246.163 63.599 245.45 63.1986Z" fill="url(#paint40_linear)" stroke="url(#paint41_linear)" stroke-width="0.0816433" stroke-miterlimit="10.43"/>
<path d="M322.201 66.8021C322.053 65.7228 320.312 65.6357 320.008 66.6541C319.764 67.2808 320.208 67.8291 320.687 68.1773C320.887 68.1773 321.279 68.1773 321.479 68.186C321.905 67.8553 322.375 67.4026 322.201 66.8021Z" fill="url(#paint42_linear)" stroke="url(#paint43_linear)" stroke-width="0.0816433" stroke-miterlimit="10.43"/>
<path d="M85.6619 68.8301C85.2093 68.1773 84.1648 68.1425 83.6513 68.7605C83.1029 69.3349 83.3031 70.3968 84.0168 70.7363C84.365 70.8407 84.7306 70.8755 85.07 70.9452C88.5342 78.2043 91.9723 85.4808 95.4974 92.7138C95.1318 93.2361 94.7488 93.9585 95.1666 94.5765C95.5757 95.2989 96.7159 95.3947 97.2033 94.7157C97.6908 94.2457 97.4297 93.5581 97.3601 92.9924C97.7604 93.3405 97.83 93.8889 97.9867 94.3589C99.6318 99.7118 101.329 105.047 102.965 110.4C102.678 110.688 102.434 111.01 102.208 111.358C99.5534 111.175 96.8987 110.775 94.2353 110.679C93.9481 110.078 93.5999 109.373 92.8514 109.286C92.0071 109.13 91.3543 109.895 91.2237 110.67C84.922 111.523 78.6291 112.428 72.3187 113.264C72.0141 112.272 70.604 111.932 69.9338 112.768C69.1069 113.577 69.8903 115.153 71.0218 115.04C71.8487 115.092 72.2752 114.274 72.4666 113.595C78.7683 112.898 85.0265 111.828 91.3195 111.097C91.5893 111.575 91.9984 112.106 92.6164 112.054C93.3301 112.15 93.7914 111.523 94.1047 110.983C96.7943 111.279 99.5012 111.453 102.191 111.776C102.339 112.219 102.504 112.716 102.965 112.916C103.818 113.429 104.993 112.646 104.959 111.688C104.993 110.844 104.149 110.235 103.357 110.278C101.581 104.516 99.7275 98.7805 98.0041 93.0011C98.3523 92.679 98.7962 92.3309 98.7265 91.7999C98.831 90.6771 97.2817 89.9024 96.4722 90.738C95.8543 91.2254 96.0806 92.0784 96.2024 92.7312C95.7237 92.6355 95.5932 92.1307 95.4017 91.7564C92.0854 84.7149 88.6648 77.7169 85.3747 70.6579C85.9056 70.2227 86.158 69.3959 85.6619 68.8301Z" fill="url(#paint44_linear)" stroke="url(#paint45_linear)" stroke-width="0.0816433" stroke-miterlimit="10.43"/>
<path d="M69.8642 69.8572C68.9589 69.2218 67.6447 70.1966 67.8623 71.2411C67.9754 72.303 69.4899 72.7382 70.1775 71.9461C70.8129 71.363 70.5953 70.2663 69.8642 69.8572Z" fill="url(#paint46_linear)" stroke="url(#paint47_linear)" stroke-width="0.0816433" stroke-miterlimit="10.43"/>
<path d="M375.409 70.5535C374.582 70.2053 373.598 71.0235 373.807 71.9113C373.868 72.8252 375.156 73.2953 375.783 72.6251C376.514 72.068 376.236 70.8581 375.409 70.5535Z" fill="url(#paint48_linear)" stroke="url(#paint49_linear)" stroke-width="0.0816433" stroke-miterlimit="10.43"/>
<path d="M137.059 73.4345C137.068 72.3639 135.64 71.7547 134.857 72.4684C134.152 72.9993 134.308 74.0612 134.926 74.6009C132.367 79.9712 129.713 85.2893 127.102 90.6336L127.023 90.651C126.562 90.651 126.022 90.6858 125.709 91.0949C125.134 91.6607 125.326 92.6877 126.014 93.0794C126.536 93.4363 127.136 93.0881 127.659 92.9924C131.854 96.3347 136.067 99.6683 140.227 103.054C139.923 103.82 140.262 104.838 141.141 104.986C141.959 105.187 142.786 104.395 142.621 103.576C142.629 102.863 141.837 102.306 141.167 102.515C140.88 102.541 140.532 102.793 140.253 102.575C136.101 99.2853 131.984 95.9517 127.833 92.6616C128.085 91.9827 127.824 91.3647 127.485 90.7816C130.017 85.4286 132.698 80.1366 135.301 74.8184C136.162 74.9751 137.12 74.3571 137.059 73.4345Z" fill="url(#paint50_linear)" stroke="url(#paint51_linear)" stroke-width="0.0816433" stroke-miterlimit="10.43"/>
<path d="M181.702 72.6773C180.849 72.39 179.883 73.1821 179.987 74.0699C180.039 75.0447 181.345 75.6801 182.102 75.0099C182.955 74.4181 182.694 72.9558 181.702 72.6773Z" fill="url(#paint52_linear)" stroke="url(#paint53_linear)" stroke-width="0.0816433" stroke-miterlimit="10.43"/>
<path d="M34.8481 72.5815C34.1257 72.1637 33.1334 72.6337 32.968 73.4432C32.7069 74.3658 33.6818 75.3407 34.6044 75.0273C35.6924 74.7488 35.8578 73.0776 34.8481 72.5815Z" fill="url(#paint54_linear)" stroke="url(#paint55_linear)" stroke-width="0.0816433" stroke-miterlimit="10.43"/>
<path d="M31.0183 74.7401C30.1653 74.3136 29.0251 75.0186 29.0251 75.9848C28.8945 77.1424 30.496 77.9606 31.349 77.1337C32.1846 76.5157 31.9496 75.1318 31.0183 74.7401Z" fill="url(#paint56_linear)" stroke="url(#paint57_linear)" stroke-width="0.0816433" stroke-miterlimit="10.43"/>
<path d="M161.299 81.9122C160.638 81.5466 159.985 82.034 159.602 82.565C159.454 83.3832 160.133 84.2971 161.021 84.0795C162.074 83.9576 162.266 82.3126 161.299 81.9122Z" fill="url(#paint58_linear)" stroke="url(#paint59_linear)" stroke-width="0.0816433" stroke-miterlimit="10.43"/>
<path d="M232.994 86.5862C232.263 85.9508 231.001 86.5862 230.992 87.5349C230.905 88.4315 231.984 89.1974 232.794 88.7535C233.656 88.414 233.751 87.0823 232.994 86.5862Z" fill="url(#paint60_linear)" stroke="url(#paint61_linear)" stroke-width="0.0816433" stroke-miterlimit="10.43"/>
<path d="M421.174 103.254C420.304 102.828 419.216 103.707 419.564 104.647C419.747 105.57 421.131 105.77 421.618 105.004C422.097 104.455 421.81 103.542 421.174 103.254Z" fill="url(#paint62_linear)" stroke="url(#paint63_linear)" stroke-width="0.0816433" stroke-miterlimit="10.43"/>
<path d="M354.101 105.282C354.188 104.438 353.292 103.951 352.552 104.073C352.213 104.403 351.734 104.743 351.795 105.291C351.786 106.083 352.604 106.544 353.318 106.466C353.71 106.161 354.171 105.839 354.101 105.282Z" fill="url(#paint64_linear)" stroke="url(#paint65_linear)" stroke-width="0.0816433" stroke-miterlimit="10.43"/>
<path d="M220.434 109.565C220.347 108.572 219.033 107.946 218.241 108.607C217.71 108.947 217.719 109.617 217.614 110.174C210.616 113.264 203.679 116.484 196.681 119.557C196.002 118.643 194.34 118.852 194.079 120.027C193.826 120.601 194.627 121.193 194.157 121.689C188.169 129.105 182.25 136.573 176.253 143.972C175.583 143.867 174.782 143.824 174.347 144.459C173.624 145.355 174.416 146.896 175.591 146.713C176.732 146.678 177.228 145.199 176.531 144.372C182.555 136.765 188.665 129.218 194.74 121.646C195.349 121.75 196.107 121.863 196.542 121.315C196.916 120.967 196.881 120.436 196.899 119.975C203.845 116.789 210.825 113.699 217.78 110.522C218.102 110.731 218.406 110.975 218.763 111.105C219.634 111.297 220.582 110.479 220.434 109.565Z" fill="url(#paint66_linear)" stroke="url(#paint67_linear)" stroke-width="0.0816433" stroke-miterlimit="10.43"/>
<path d="M145.432 113.186C146.372 112.359 145.65 110.531 144.353 110.714C143.369 110.705 142.908 111.776 142.986 112.629C135.936 116.067 128.921 119.566 121.862 122.978C121.305 122.325 120.208 122.177 119.616 122.873C118.815 123.604 119.338 125.067 120.382 125.232C121.435 125.484 122.306 124.361 122.079 123.378C126.64 121.08 131.245 118.878 135.814 116.606C138.295 115.405 140.749 114.143 143.239 112.985C143.787 113.621 144.832 113.821 145.432 113.186Z" fill="url(#paint68_linear)" stroke="url(#paint69_linear)" stroke-width="0.0816433" stroke-miterlimit="10.43"/>
<path d="M242.804 114.43C242.447 113.743 241.507 113.351 240.863 113.908C240.105 114.43 240.323 115.745 241.219 115.988C241.907 116.293 242.49 115.736 242.821 115.196C242.812 114.996 242.804 114.613 242.804 114.43Z" fill="url(#paint70_linear)" stroke="url(#paint71_linear)" stroke-width="0.0816433" stroke-miterlimit="10.43"/>
<path d="M265.756 126.685C264.929 126.181 263.763 126.999 263.946 127.948C264.033 128.914 265.425 129.375 266.052 128.609C266.652 128.087 266.444 127.051 265.756 126.685Z" fill="url(#paint72_linear)" stroke="url(#paint73_linear)" stroke-width="0.0816433" stroke-miterlimit="10.43"/>
<path d="M155.642 132.535C154.806 132.186 153.814 133.048 154.04 133.927C154.197 134.824 155.468 135.241 156.068 134.51C156.739 133.953 156.443 132.796 155.642 132.535Z" fill="url(#paint74_linear)" stroke="url(#paint75_linear)" stroke-width="0.0816433" stroke-miterlimit="10.43"/>
<path d="M20.4866 138.035C20.208 137.2 19.0156 136.878 18.3802 137.522C17.7361 138.001 17.7448 139.062 18.3976 139.541C18.798 139.985 19.4247 139.837 19.9382 139.794C21.5398 141.978 23.1239 144.172 24.7341 146.348C19.651 148.384 14.6027 150.526 9.50216 152.501C9.23233 152.284 8.99731 151.962 8.61434 151.936C7.78746 151.762 6.96929 152.588 7.15207 153.415C7.2217 153.938 7.69173 154.225 8.09212 154.486C7.78748 159.151 7.35225 163.808 6.96927 168.465C6.56018 168.656 6.03794 168.804 5.88127 169.291C5.55923 169.944 5.99444 170.641 6.5515 170.997C5.87259 174.14 5.15014 177.273 4.4103 180.406C3.67046 180.432 2.94804 181.033 3.06119 181.834C3.03508 182.443 3.58343 182.791 4.03603 183.07C3.55732 191.373 3.00028 199.677 2.47804 207.981C2.04284 208.198 1.44225 208.398 1.37262 208.973C1.16372 209.678 1.63377 210.496 2.38231 210.566C3.29623 210.74 4.1492 209.643 3.7227 208.816C3.52251 208.424 3.1221 208.207 2.77395 207.954C3.43545 199.677 3.81846 191.365 4.44515 183.087C4.92387 182.887 5.47219 182.617 5.55923 182.043C5.73331 181.425 5.37643 180.824 4.83678 180.546C5.41125 177.377 6.25557 174.261 6.89096 171.111C7.77877 171.076 8.44897 170.275 8.301 169.387C8.00507 169.013 7.64819 168.7 7.2478 168.438C7.79616 163.817 8.01377 159.16 8.50989 154.529C9.32807 154.355 9.73716 153.616 9.77198 152.832C14.829 150.795 19.886 148.75 24.9256 146.661C26.9797 149.368 28.9468 152.145 30.9574 154.886C30.5571 155.478 30.4439 156.349 31.0532 156.845C31.7669 157.602 33.2118 157.001 33.1944 155.966C33.3075 155.174 32.5938 154.529 31.8278 154.529C31.1315 151.666 30.4787 148.794 29.8607 145.913C30.2872 145.617 30.705 145.207 30.6267 144.65C30.6789 143.658 29.3559 142.988 28.5987 143.667C28.1287 143.98 28.12 144.581 27.9894 145.077C27.0146 145.408 26.0658 145.843 25.0997 146.208C23.4981 143.972 21.8531 141.769 20.2516 139.533C20.4953 139.071 20.6607 138.54 20.4866 138.035ZM29.4517 146C30.0871 148.924 30.853 151.823 31.3839 154.764C29.2863 152.066 27.354 149.246 25.3086 146.504C26.2834 146.113 27.2408 145.678 28.2331 145.347C28.529 145.747 28.9904 145.895 29.4517 146Z" fill="url(#paint76_linear)" stroke="url(#paint77_linear)" stroke-width="0.0816433" stroke-miterlimit="10.43"/>
<path d="M212.488 143.832C211.608 143.119 210.225 144.233 210.651 145.251C210.903 146.139 212.192 146.383 212.757 145.678C213.262 145.138 213.123 144.207 212.488 143.832Z" fill="url(#paint78_linear)" stroke="url(#paint79_linear)" stroke-width="0.0816433" stroke-miterlimit="10.43"/>
<path d="M277.759 147.61C276.679 147.236 275.557 148.463 276.027 149.507C276.392 150.508 277.915 150.7 278.516 149.838C279.151 149.089 278.699 147.836 277.759 147.61Z" fill="url(#paint80_linear)" stroke="url(#paint81_linear)" stroke-width="0.0816433" stroke-miterlimit="10.43"/>
<path d="M35.9448 152.11C36.5193 151.309 35.8752 150.038 34.8916 150.012C34.0125 149.89 33.2292 150.787 33.4294 151.648C33.4903 152.171 33.969 152.475 34.3607 152.763C33.6644 157.454 32.9942 162.145 32.2282 166.828C31.5928 166.95 30.8878 167.403 30.8878 168.134C30.7921 168.726 31.2447 169.143 31.6451 169.492C29.3733 177.804 26.971 186.073 24.6558 194.368C24.003 194.437 23.2457 194.759 23.1413 195.499C22.8105 196.674 24.412 197.693 25.2998 196.822C26.1093 196.265 25.9352 194.986 25.0822 194.568C25.5 192.435 26.2399 190.372 26.7795 188.275C28.5464 182.06 30.2698 175.828 32.0629 169.613C32.8723 169.64 33.6557 168.987 33.5861 168.143C33.5948 167.542 33.0986 167.168 32.646 166.872C33.351 162.18 34.0561 157.48 34.7872 152.789C35.2311 152.684 35.7098 152.545 35.9448 152.11Z" fill="url(#paint82_linear)" stroke="url(#paint83_linear)" stroke-width="0.0816433" stroke-miterlimit="10.43"/>
<path d="M285.418 161.797C284.513 161.249 283.286 162.198 283.547 163.216C283.669 164.147 284.913 164.617 285.618 164.008C286.35 163.486 286.262 162.154 285.418 161.797Z" fill="url(#paint84_linear)" stroke="url(#paint85_linear)" stroke-width="0.0816433" stroke-miterlimit="10.43"/>
<path d="M69.0112 173.774C69.8033 172.695 68.7153 171.058 67.4097 171.424C66.1563 171.685 65.9387 173.469 66.957 174.157C66.5567 175.393 65.9996 176.577 65.5296 177.787C65.1989 178.518 65.0335 179.362 64.4155 179.936C64.1457 180.189 64.0238 180.546 63.8933 180.894C63.4494 181.051 62.9358 181.172 62.6399 181.59C62.0132 182.295 62.3613 183.575 63.2579 183.879C63.9977 184.227 64.9639 183.836 65.2424 183.061C65.3991 182.504 66.078 182.6 66.5132 182.469C69.2288 182.199 71.9445 181.93 74.6688 181.703C74.9996 182.356 75.5914 182.87 76.3574 182.878C78.0808 190.399 79.9434 197.893 81.6494 205.422C81.2925 205.735 80.7964 206.057 80.7529 206.588C80.6136 207.476 81.4318 208.407 82.3457 208.277C82.8767 208.294 83.2248 207.867 83.5382 207.519C86.306 208.32 89.0565 209.225 91.7808 210.157C91.746 210.801 92.0594 211.462 92.6773 211.715C93.6174 212.185 94.8359 211.306 94.714 210.27C94.714 209.669 94.2354 209.251 93.7653 208.964C94.5052 204.368 95.393 199.79 96.1676 195.203C96.6551 195.047 97.2208 194.916 97.4906 194.437C98.0738 193.584 97.4993 192.27 96.4723 192.139C95.9239 192.009 95.4452 192.357 94.9926 192.618C89.2392 189.058 83.4685 185.542 77.6978 182.017C77.6978 181.373 77.6978 180.607 77.1059 180.189C76.5924 179.728 75.87 179.884 75.2781 180.093C73.1978 177.987 71.0828 175.906 69.0112 173.774ZM74.9996 180.476C74.8951 180.737 74.7907 180.99 74.6688 181.251C72.0228 181.494 69.3942 181.799 66.7394 181.956C67.6621 180.955 66.5915 179.362 65.3381 179.466C66.0257 177.787 66.7133 176.098 67.3922 174.418C67.8361 174.34 68.2713 174.261 68.6978 174.157C70.8216 176.237 72.928 178.344 74.9996 180.476ZM94.8098 193.001C94.627 193.837 94.9142 194.716 95.7411 195.081C94.9839 199.677 94.157 204.264 93.3301 208.842C92.7731 208.947 92.2769 209.217 91.9288 209.687C89.1957 208.834 86.4801 207.937 83.7558 207.075C83.7819 206.127 83.0594 205.343 82.1107 205.291C80.3525 197.762 78.5072 190.259 76.8187 182.713C77.0189 182.582 77.2191 182.452 77.4192 182.321C83.1987 185.899 89.0042 189.45 94.8098 193.001Z" fill="url(#paint86_linear)" stroke="url(#paint87_linear)" stroke-width="0.0816433" stroke-miterlimit="10.43"/>
<path d="M116.117 176.037C115.186 175.785 114.289 176.855 114.698 177.734C114.968 178.57 116.195 178.857 116.761 178.169C117.527 177.525 117.066 176.194 116.117 176.037Z" fill="url(#paint88_linear)" stroke="url(#paint89_linear)" stroke-width="0.0816433" stroke-miterlimit="10.43"/>
<path d="M237.546 179.484C237.599 178.448 236.267 177.717 235.431 178.344C234.604 178.814 234.543 180.128 235.327 180.676C235.953 181.198 236.867 180.946 237.364 180.38C240.88 182.051 244.37 183.766 247.869 185.472C247.739 186.29 248.235 187.283 249.131 187.326C250.141 187.5 251.011 186.308 250.576 185.394C250.341 184.715 249.558 184.367 248.87 184.532C248.574 184.68 248.322 184.898 248.052 185.098C244.884 183.549 241.707 181.999 238.53 180.467C238.121 180.232 237.459 180.102 237.546 179.484Z" fill="url(#paint90_linear)" stroke="url(#paint91_linear)" stroke-width="0.0816433" stroke-miterlimit="10.43"/>
<path d="M277.75 188.666C277.08 187.883 275.644 188.501 275.696 189.511C275.644 190.294 276.436 190.808 277.141 190.79C279.569 198.789 282.128 206.753 284.539 214.761C284.06 215.144 283.782 215.675 283.869 216.31C284.191 216.667 284.53 217.12 285.07 217.085C285.967 217.128 286.645 215.98 286.08 215.24C285.827 214.787 285.279 214.717 284.826 214.613C282.424 206.64 279.917 198.693 277.445 190.738C278.055 190.233 278.455 189.258 277.75 188.666Z" fill="url(#paint92_linear)" stroke="url(#paint93_linear)" stroke-width="0.0816433" stroke-miterlimit="10.43"/>
<path d="M353.205 192.818C352.23 192.444 351.116 193.419 351.394 194.437C351.586 195.534 353.187 195.891 353.831 194.994C354.449 194.298 354.075 193.088 353.205 192.818Z" fill="url(#paint94_linear)" stroke="url(#paint95_linear)" stroke-width="0.0816433" stroke-miterlimit="10.43"/>
<path d="M17.7709 195.09C17.8318 194.333 17.3444 193.445 16.5001 193.454C15.3947 193.323 14.6026 194.907 15.4991 195.664C16.0823 196.361 17.1181 196.1 17.6143 195.447C23.7854 197.867 29.913 200.382 36.0928 202.784C36.1537 203.463 36.4496 204.334 37.2417 204.421C38.234 204.647 39.1131 203.42 38.556 202.558C38.3558 202.123 37.8858 201.992 37.468 201.836C37.0502 201.957 36.6324 202.114 36.3539 202.48C30.1305 200.086 23.9681 197.527 17.7709 195.09Z" fill="url(#paint96_linear)" stroke="url(#paint97_linear)" stroke-width="0.0816433" stroke-miterlimit="10.43"/>
<path d="M325.639 198.284C324.978 198.075 324.421 198.589 324.055 199.085C323.942 199.842 324.403 200.765 325.248 200.8C326.153 200.904 326.788 199.947 326.64 199.111C326.362 198.772 326.101 198.363 325.639 198.284Z" fill="url(#paint98_linear)" stroke="url(#paint99_linear)" stroke-width="0.0816433" stroke-miterlimit="10.43"/>
<path d="M285.714 200.634C285.201 199.982 284.095 200.043 283.634 200.73C283.103 201.366 283.442 202.427 284.2 202.706C284.687 202.95 285.192 202.689 285.662 202.567C291.929 207.928 298.161 213.325 304.41 218.686C304.785 218.895 304.619 219.331 304.61 219.679C304.471 220.506 305.437 221.315 306.229 221.037C306.578 220.932 306.969 220.619 307.283 220.967C313.723 225.711 320.191 230.419 326.614 235.189C326.562 235.729 326.44 236.416 326.945 236.799C327.563 237.47 328.781 237.148 329.051 236.303C329.46 235.424 328.555 234.267 327.598 234.545C327.25 234.589 326.849 234.98 326.536 234.65C320.086 229.897 313.619 225.162 307.169 220.41C307.457 219.618 307.091 218.582 306.195 218.434C305.69 218.225 305.124 218.913 304.715 218.443C298.457 213.072 292.207 207.685 285.949 202.314C285.984 201.749 286.202 201.061 285.714 200.634Z" fill="url(#paint100_linear)" stroke="url(#paint101_linear)" stroke-width="0.0816433" stroke-miterlimit="10.43"/>
<path d="M3.16561 226.094C3.27876 225.302 2.85229 224.422 1.99059 224.318C0.911303 224.126 0.0234661 225.563 0.763304 226.416C1.30295 227.19 2.40836 227.016 3.00023 226.416C7.75261 228.766 12.5224 231.081 17.2835 233.414C17.3792 233.953 17.3618 234.632 17.9102 234.954C18.8067 235.659 20.2167 234.667 19.886 233.579C19.6945 232.491 18.1974 232.239 17.5533 233.1C12.7226 230.829 7.97891 228.391 3.16561 226.094Z" fill="url(#paint102_linear)" stroke="url(#paint103_linear)" stroke-width="0.0816433" stroke-miterlimit="10.43"/>
<path d="M290.057 231.037C290.24 230.106 289.439 229.123 288.465 229.314C287.359 229.34 286.828 230.907 287.638 231.638C288.003 232.082 288.613 232.047 289.126 232.047C292.112 237.887 295.175 243.693 298.091 249.568C297.847 249.89 297.499 250.204 297.56 250.656C297.456 251.3 298.03 251.718 298.457 252.075C296.89 260.257 295.141 268.412 293.626 276.603C293.147 276.768 292.564 276.873 292.312 277.369C291.789 278.196 292.39 279.484 293.4 279.458C294.322 279.58 295.114 278.535 294.81 277.665C294.697 277.238 294.296 276.994 293.974 276.725C295.584 268.526 297.229 260.326 298.883 252.136C299.719 252.092 300.528 251.326 300.328 250.447C300.206 249.56 299.24 249.194 298.448 249.281C295.523 243.562 292.573 237.861 289.657 232.143C289.387 231.742 289.883 231.386 290.057 231.037Z" fill="url(#paint104_linear)" stroke="url(#paint105_linear)" stroke-width="0.0816433" stroke-miterlimit="10.43"/>
<path d="M94.6879 237.113C93.8001 236.739 92.7034 237.531 92.8427 238.505C92.8079 239.672 94.4616 240.238 95.1927 239.358C95.9065 238.697 95.5757 237.426 94.6879 237.113Z" fill="url(#paint106_linear)" stroke="url(#paint107_linear)" stroke-width="0.0816433" stroke-miterlimit="10.43"/>
<path d="M363.754 240.821C363.545 240.403 363.084 240.255 362.675 240.098C362.187 240.246 361.595 240.386 361.421 240.934C360.934 241.856 361.891 243.014 362.884 242.744C363.728 242.622 364.215 241.543 363.754 240.821Z" fill="url(#paint108_linear)" stroke="url(#paint109_linear)" stroke-width="0.0816433" stroke-miterlimit="10.43"/>
<path d="M258.018 242.918C257.661 242.483 257.261 241.883 256.608 242.004C255.45 241.996 254.902 243.693 255.868 244.355C256.826 245.199 258.297 244.093 258.018 242.918Z" fill="url(#paint110_linear)" stroke="url(#paint111_linear)" stroke-width="0.0816433" stroke-miterlimit="10.43"/>
<path d="M108.788 243.493C107.927 242.814 106.525 243.615 106.569 244.677C106.482 245.834 108.075 246.635 108.928 245.799C109.702 245.242 109.607 243.972 108.788 243.493Z" fill="url(#paint112_linear)" stroke="url(#paint113_linear)" stroke-width="0.0816433" stroke-miterlimit="10.43"/>
<path d="M248.618 244.624C248.252 244.12 247.686 243.658 247.016 243.902C246.024 244.172 245.867 245.704 246.825 246.121C247.791 246.687 248.844 245.608 248.618 244.624Z" fill="url(#paint114_linear)" stroke="url(#paint115_linear)" stroke-width="0.0816433" stroke-miterlimit="10.43"/>
<path d="M289.474 244.346C288.691 244.041 287.673 244.642 287.707 245.521C287.577 246.618 289.117 247.323 289.883 246.531C290.649 245.939 290.371 244.633 289.474 244.346Z" fill="url(#paint116_linear)" stroke="url(#paint117_linear)" stroke-width="0.0816433" stroke-miterlimit="10.43"/>
<path d="M326.658 254.625C325.674 254.225 324.464 255.182 324.673 256.235C324.786 257.315 326.249 257.907 327.067 257.184C327.972 256.54 327.72 254.956 326.658 254.625Z" fill="url(#paint118_linear)" stroke="url(#paint119_linear)" stroke-width="0.0816433" stroke-miterlimit="10.43"/>
<path d="M364.955 274.026C363.954 273.852 363.066 274.897 363.345 275.863C363.545 277.038 365.268 277.351 365.939 276.411C366.687 275.567 366.043 274.122 364.955 274.026Z" fill="url(#paint120_linear)" stroke="url(#paint121_linear)" stroke-width="0.0816433" stroke-miterlimit="10.43"/>
<path d="M213.445 276.263C212.488 275.532 211.043 276.69 211.513 277.795C211.8 278.657 212.862 278.857 213.584 278.439C219.355 284.01 225.117 289.589 230.888 295.16C230.783 295.63 230.757 296.108 230.783 296.605C223.707 301.427 216.648 306.283 209.563 311.105C209.232 310.949 208.884 310.731 208.492 310.775C207.761 310.748 207.135 311.506 207.274 312.228C207.3 312.75 207.805 313.038 208.162 313.325C207.657 316.85 207.065 320.366 206.595 323.891C206.02 324.057 205.298 324.362 205.298 325.075C205.028 326.242 206.665 327.068 207.439 326.172C208.179 325.502 207.761 324.335 206.926 323.979C207.422 320.462 208.057 316.972 208.458 313.447C208.91 313.229 209.485 313.09 209.702 312.585C209.92 312.211 209.798 311.776 209.807 311.384C216.848 306.553 223.907 301.757 230.94 296.918C231.462 297.17 232.124 297.457 232.663 297.075C233.403 296.657 233.473 295.499 232.803 294.994C232.341 294.576 231.68 294.768 231.14 294.899C225.378 289.354 219.642 283.757 213.871 278.222C214.08 277.543 214.15 276.672 213.445 276.263Z" fill="url(#paint122_linear)" stroke="url(#paint123_linear)" stroke-width="0.0816433" stroke-miterlimit="10.43"/>
<path d="M325.439 277.63C324.734 277.116 323.533 277.517 323.463 278.448C323.315 279.092 323.881 279.527 324.334 279.867C324.873 279.867 325.465 279.736 325.752 279.231C325.97 278.709 325.944 277.978 325.439 277.63Z" fill="url(#paint124_linear)" stroke="url(#paint125_linear)" stroke-width="0.0816433" stroke-miterlimit="10.43"/>
<path d="M147.913 279.17C148.087 278.248 147.286 277.238 146.311 277.482C145.284 277.673 144.919 279.17 145.815 279.771C146.529 280.433 147.504 279.884 147.913 279.17Z" fill="url(#paint126_linear)" stroke="url(#paint127_linear)" stroke-width="0.0816433" stroke-miterlimit="10.43"/>
<path d="M238.121 289.511C237.851 289.076 237.451 288.754 236.946 288.64C236.154 288.78 235.605 289.485 235.753 290.294C236.084 290.634 236.415 291.095 236.954 291.051C237.485 291.086 237.816 290.642 238.121 290.294C238.112 290.094 238.121 289.702 238.121 289.511Z" fill="url(#paint128_linear)" stroke="url(#paint129_linear)" stroke-width="0.0816433" stroke-miterlimit="10.43"/>
<path d="M333.264 290.355C332.22 289.902 331.027 291.104 331.488 292.139C331.776 293.097 333.194 293.349 333.812 292.583C334.509 291.913 334.143 290.668 333.264 290.355Z" fill="url(#paint130_linear)" stroke="url(#paint131_linear)" stroke-width="0.0816433" stroke-miterlimit="10.43"/>
<path d="M392.773 295.16C391.99 294.698 390.937 295.299 390.832 296.187C390.632 297.266 392.077 298.154 392.921 297.423C393.722 296.892 393.609 295.586 392.773 295.16Z" fill="url(#paint132_linear)" stroke="url(#paint133_linear)" stroke-width="0.0816433" stroke-miterlimit="10.43"/>
<path d="M157.539 304.438C156.46 304.055 155.442 305.526 156.234 306.379C156.791 307.189 158.14 306.884 158.384 305.97C158.584 305.335 158.166 304.63 157.539 304.438Z" fill="url(#paint134_linear)" stroke="url(#paint135_linear)" stroke-width="0.0816433" stroke-miterlimit="10.43"/>
<path d="M377.602 313.978C376.871 313.595 375.861 313.978 375.574 314.77C375.156 315.623 375.8 316.789 376.758 316.867C377.672 317.033 378.551 316.145 378.455 315.248C378.438 314.7 378.055 314.239 377.602 313.978Z" fill="url(#paint136_linear)" stroke="url(#paint137_linear)" stroke-width="0.0816433" stroke-miterlimit="10.43"/>
<path d="M148.148 316.467C148.096 315.745 147.478 315.013 146.712 315.118C145.589 315.144 145.032 316.789 146.007 317.433C146.729 318.095 147.695 317.546 148.139 316.85C154.11 318.008 160.09 319.096 166.061 320.253C166.174 320.932 166.679 321.681 167.453 321.594C168.402 321.611 169.055 320.34 168.428 319.609C168.21 319.27 167.819 319.148 167.462 319C166.931 319.113 166.409 319.339 166.165 319.87C160.159 318.808 154.154 317.616 148.148 316.467Z" fill="url(#paint138_linear)" stroke="url(#paint139_linear)" stroke-width="0.0816433" stroke-miterlimit="10.43"/>
<path d="M227.484 316.606C226.605 316.275 225.526 317.059 225.674 318.016C225.691 319.052 227.11 319.687 227.876 318.982C228.712 318.391 228.485 316.893 227.484 316.606Z" fill="url(#paint140_linear)" stroke="url(#paint141_linear)" stroke-width="0.0816433" stroke-miterlimit="10.43"/>
<path d="M181.693 317.259C180.875 316.963 179.935 317.781 180.144 318.634C180.274 319.513 181.554 319.957 182.146 319.244C182.833 318.678 182.511 317.511 181.693 317.259Z" fill="url(#paint142_linear)" stroke="url(#paint143_linear)" stroke-width="0.0816433" stroke-miterlimit="10.43"/>
<path d="M347.234 326.598C346.259 326.015 344.936 326.973 345.154 328.087C345.232 329.183 346.738 329.732 347.504 328.948C348.27 328.331 348.096 327.034 347.234 326.598Z" fill="url(#paint144_linear)" stroke="url(#paint145_linear)" stroke-width="0.0816433" stroke-miterlimit="10.43"/>
<path d="M350.837 327.095C349.932 326.712 348.827 327.521 349.009 328.505C349.079 329.549 350.559 330.097 351.246 329.279C351.986 328.696 351.716 327.391 350.837 327.095Z" fill="url(#paint146_linear)" stroke="url(#paint147_linear)" stroke-width="0.0816433" stroke-miterlimit="10.43"/>
<path d="M474.634 327.538C473.624 327.199 472.536 328.331 472.963 329.323C473.294 330.254 474.677 330.507 475.278 329.697C475.905 329.009 475.513 327.8 474.634 327.538Z" fill="url(#paint148_linear)" stroke="url(#paint149_linear)" stroke-width="0.0816433" stroke-miterlimit="10.43"/>
<path d="M439.548 329.471C438.66 329.088 437.572 329.906 437.72 330.872C437.703 332.012 439.339 332.552 440.062 331.708C440.767 331.055 440.445 329.775 439.548 329.471Z" fill="url(#paint150_linear)" stroke="url(#paint151_linear)" stroke-width="0.0816433" stroke-miterlimit="10.43"/>
<path d="M233.447 333.57C234.282 332.926 233.682 331.447 232.646 331.507C231.741 331.351 231.018 332.404 231.384 333.205C231.628 333.727 232.167 334.006 232.724 334.032C234.422 339.828 236.049 345.643 237.712 351.448C237.329 351.831 236.859 352.266 236.998 352.876C237.111 353.903 238.626 354.303 239.217 353.441C239.905 352.615 239.139 351.309 238.095 351.396C236.441 345.921 234.952 340.386 233.342 334.893C233.264 334.449 232.959 333.892 233.447 333.57Z" fill="url(#paint152_linear)" stroke="url(#paint153_linear)" stroke-width="0.0816433" stroke-miterlimit="10.43"/>
<path d="M218.241 346.583C217.414 346.226 216.43 347.07 216.631 347.941C216.744 348.828 217.971 349.316 218.606 348.637C219.338 348.08 219.068 346.887 218.241 346.583Z" fill="url(#paint154_linear)" stroke="url(#paint155_linear)" stroke-width="0.0816433" stroke-miterlimit="10.43"/>
<path d="M180.03 368.09C179.134 367.594 177.976 368.525 178.185 369.509C178.316 370.484 179.656 370.971 180.352 370.249C181.084 369.683 180.857 368.447 180.03 368.09Z" fill="url(#paint156_linear)" stroke="url(#paint157_linear)" stroke-width="0.0816433" stroke-miterlimit="10.43"/>
<path d="M499.745 369.483C498.657 369.161 497.621 370.51 498.239 371.467C498.709 372.312 500.093 372.329 500.563 371.476C501.051 370.745 500.546 369.718 499.745 369.483Z" fill="url(#paint158_linear)" stroke="url(#paint159_linear)" stroke-width="0.0816433" stroke-miterlimit="10.43"/>
<path d="M441.15 369.709C440.044 369.405 438.956 370.623 439.418 371.676C439.783 372.712 441.324 372.947 441.951 372.025C442.603 371.241 442.107 369.979 441.15 369.709Z" fill="url(#paint160_linear)" stroke="url(#paint161_linear)" stroke-width="0.0816433" stroke-miterlimit="10.43"/>
<path d="M310.834 379.414C310.581 378.857 310.338 378.126 309.65 377.995C308.823 377.76 307.901 378.526 307.996 379.388C307.988 380.18 308.858 380.807 309.615 380.615C310.12 380.537 310.399 380.076 310.677 379.71C315.421 380.424 320.147 381.277 324.899 381.912C325.134 382.417 325.317 383.052 325.9 383.261C326.745 383.636 327.798 382.852 327.711 381.947C327.711 381.164 326.875 380.537 326.118 380.72C325.613 380.772 325.335 381.242 325.039 381.608C322.184 381.146 319.338 380.702 316.483 380.25C314.603 379.989 312.74 379.562 310.834 379.414Z" fill="url(#paint162_linear)" stroke="url(#paint163_linear)" stroke-width="0.0816433" stroke-miterlimit="10.43"/>
<path d="M372.998 385.794C373.006 385.255 372.519 384.932 372.136 384.637C371.944 384.637 371.553 384.637 371.361 384.637C370.97 384.915 370.552 385.246 370.517 385.777C370.43 386.447 370.978 386.952 371.562 387.161C371.553 392.923 371.527 398.676 371.501 404.438C370.926 404.708 370.291 405.187 370.404 405.909C370.447 406.962 371.953 407.493 372.615 406.64C373.294 405.857 372.754 404.673 371.805 404.421C371.797 401.505 371.788 398.58 371.831 395.665C371.979 392.827 371.866 389.972 371.944 387.126C372.554 386.961 373.059 386.447 372.998 385.794Z" fill="url(#paint164_linear)" stroke="url(#paint165_linear)" stroke-width="0.0816433" stroke-miterlimit="10.43"/>
<path d="M510.39 390.085C510.59 388.971 509.171 388.031 508.249 388.727C507.361 389.241 507.431 390.529 508.17 391.147C506.604 394.472 505.011 397.78 503.418 401.096C502.548 400.956 501.494 401.514 501.503 402.48C501.355 403.55 502.67 404.421 503.601 403.89C504.593 403.463 504.663 402.001 503.836 401.366C505.35 397.988 506.961 394.664 508.588 391.339C509.398 391.487 510.364 390.973 510.39 390.085Z" fill="url(#paint166_linear)" stroke="url(#paint167_linear)" stroke-width="0.0816433" stroke-miterlimit="10.43"/>
<path d="M305.533 392.67C304.785 392.226 303.723 392.853 303.705 393.715C303.601 394.603 304.68 395.369 305.472 394.933C306.421 394.577 306.43 393.088 305.533 392.67Z" fill="url(#paint168_linear)" stroke="url(#paint169_linear)" stroke-width="0.0816433" stroke-miterlimit="10.43"/>
<path d="M368.985 404.917C368.149 404.238 366.783 405.074 366.957 406.135C366.948 407.18 368.393 407.78 369.124 407.032C369.829 406.501 369.725 405.352 368.985 404.917Z" fill="url(#paint170_linear)" stroke="url(#paint171_linear)" stroke-width="0.0816433" stroke-miterlimit="10.43"/>
<path d="M300.38 405.117C299.553 404.508 298.274 405.361 298.413 406.344C298.448 407.319 299.797 407.955 300.528 407.258C301.268 406.745 301.155 405.535 300.38 405.117Z" fill="url(#paint172_linear)" stroke="url(#paint173_linear)" stroke-width="0.0816433" stroke-miterlimit="10.43"/>
<path d="M535.24 411.854C534.456 411.375 533.299 412.011 533.299 412.933C533.168 413.751 533.969 414.535 534.787 414.395C535.362 414.361 535.692 413.847 535.98 413.421C542.978 414.021 549.967 414.813 556.965 415.483C557.113 415.893 557.27 416.363 557.687 416.598C558.479 417.12 559.715 416.476 559.707 415.518C559.802 414.683 558.906 413.908 558.088 414.117C557.557 414.16 557.296 414.674 557.035 415.066C550.028 414.465 543.039 413.664 536.041 412.985C535.893 412.55 535.701 412.063 535.24 411.854Z" fill="url(#paint174_linear)" stroke="url(#paint175_linear)" stroke-width="0.0816433" stroke-miterlimit="10.43"/>
<path d="M347.73 419C348.331 418.356 347.861 417.224 347.034 417.076C346.233 416.867 345.406 417.686 345.598 418.486C345.641 418.939 346.068 419.191 346.355 419.487C346.86 419.496 347.425 419.452 347.73 419Z" fill="url(#paint176_linear)" stroke="url(#paint177_linear)" stroke-width="0.0816433" stroke-miterlimit="10.43"/>
<path d="M305.681 444.938C305.089 444.355 303.862 444.607 303.688 445.469C303.418 446.13 303.932 446.722 304.436 447.079C305.063 447.157 305.585 446.861 305.977 446.409C309.032 447.427 312.052 448.515 315.116 449.507C315.238 450.03 315.351 450.7 315.926 450.926C316.596 451.274 317.518 450.874 317.693 450.134C317.928 449.377 317.275 448.471 316.465 448.541C315.952 448.463 315.621 448.924 315.255 449.203C312.218 448.149 309.163 447.122 306.116 446.104C306.029 445.704 306.012 445.225 305.681 444.938Z" fill="url(#paint178_linear)" stroke="url(#paint179_linear)" stroke-width="0.0816433" stroke-miterlimit="10.43"/>
<path d="M569.116 458.316C568.898 457.733 568.637 457.001 567.932 456.897C567.114 456.679 566.209 457.454 566.296 458.29C566.269 459.108 567.166 459.717 567.941 459.517C568.445 459.447 568.715 458.977 568.994 458.62C576.479 459.769 583.965 460.91 591.441 462.076C591.485 463.155 592.869 463.869 593.696 463.103C594.627 462.424 594.079 460.822 592.965 460.753C592.303 460.614 591.85 461.188 591.502 461.649C585.122 460.762 578.777 459.7 572.406 458.751C571.318 458.603 570.23 458.368 569.116 458.316Z" fill="url(#paint180_linear)" stroke="url(#paint181_linear)" stroke-width="0.0816433" stroke-miterlimit="10.43"/>
<path d="M287.76 465.662C286.872 465.262 285.775 466.097 285.94 467.063C286.045 468.082 287.464 468.647 288.169 467.838C288.9 467.246 288.63 465.958 287.76 465.662Z" fill="url(#paint182_linear)" stroke="url(#paint183_linear)" stroke-width="0.0816433" stroke-miterlimit="10.43"/>
<path d="M644.483 474.331C645.136 473.33 643.935 471.903 642.847 472.425C641.968 472.721 641.759 473.783 642.186 474.54C639.722 477.003 637.294 479.51 634.831 481.973C634.239 481.843 633.508 481.66 633.029 482.147C632.359 482.748 632.559 483.984 633.403 484.315C634.082 484.68 635.04 484.254 635.214 483.496C635.327 483.07 635.179 482.652 635.092 482.243C637.546 479.745 640.018 477.273 642.49 474.801C643.178 475.158 644.1 475.062 644.483 474.331Z" fill="url(#paint184_linear)" stroke="url(#paint185_linear)" stroke-width="0.0816433" stroke-miterlimit="10.43"/>
<path d="M565.077 493.236C564.259 492.879 563.206 493.48 563.232 494.402C563.153 495.316 564.233 496.03 565.051 495.63C566.095 495.282 566.113 493.61 565.077 493.236Z" fill="url(#paint186_linear)" stroke="url(#paint187_linear)" stroke-width="0.0816433" stroke-miterlimit="10.43"/>
<path d="M595.21 494.437C595.088 493.532 593.896 493.071 593.173 493.593C592.773 493.819 592.634 494.281 592.468 494.681C586.358 495.273 580.239 495.821 574.129 496.413C573.067 496.457 572.014 496.692 570.943 496.639C570.787 496.004 570.204 495.743 569.629 495.612C569.081 495.76 568.472 496.021 568.358 496.657C567.967 497.771 569.368 498.868 570.352 498.171C573.415 501.496 576.331 504.969 579.352 508.337C579.021 508.964 578.916 509.861 579.569 510.331C580.161 510.879 581.031 510.618 581.571 510.139C586.245 512.75 590.937 515.327 595.619 517.929C595.558 518.539 595.637 519.218 596.211 519.574C597.073 520.288 598.509 519.426 598.37 518.347C598.361 517.668 597.752 517.233 597.169 517.068C596.786 511.375 596.603 505.665 596.307 499.973C596.812 499.712 597.377 499.329 597.395 498.693C597.517 497.745 596.464 496.953 595.584 497.336C596.072 496.866 596.194 496.039 595.698 495.543C595.393 495.229 595.254 494.838 595.21 494.437ZM593.182 495.969C593.06 496.857 593.67 497.666 594.549 497.823C594.601 498.311 594.653 498.798 594.688 499.294C590.458 502.149 586.262 505.047 582.058 507.937C581.789 508.129 581.458 508.39 581.127 508.137C580.675 507.85 580.144 507.946 579.656 508.076C576.653 504.734 573.737 501.313 570.726 497.98C570.83 497.675 570.943 497.379 571.048 497.092C578.194 496.413 585.349 495.717 592.503 495.116C592.721 495.403 592.938 495.691 593.182 495.969ZM595.976 500.365C596.037 503.681 596.429 506.988 596.237 510.305C596.081 509.495 596.115 508.668 596.054 507.859C595.759 505.091 595.436 502.323 595.167 499.555C595.436 499.782 596.081 499.86 595.976 500.365ZM594.758 499.694C595.41 505.5 596.037 511.306 596.638 517.111C596.263 517.294 595.854 517.686 595.445 517.364C590.893 514.848 586.341 512.324 581.78 509.817C581.763 509.426 581.745 509.043 581.71 508.66C586.054 505.657 590.414 502.689 594.758 499.694Z" fill="url(#paint188_linear)" stroke="url(#paint189_linear)" stroke-width="0.0816433" stroke-miterlimit="10.43"/>
<path d="M589.631 552.092C589.283 551.222 587.977 551.022 587.359 551.701C587.02 552.014 586.985 552.493 586.872 552.928C584.295 553.677 581.736 554.512 579.151 555.269C578.699 555.487 578.464 554.93 578.107 554.765C577.263 554.234 576.053 555.026 576.105 555.992C576.044 556.967 577.263 557.75 578.116 557.228C578.699 556.984 578.821 556.314 578.916 555.765C581.615 554.939 584.313 554.129 587.002 553.302C587.35 553.624 587.69 554.068 588.221 554.06C589.257 554.216 590.127 552.998 589.631 552.092Z" fill="url(#paint190_linear)" stroke="url(#paint191_linear)" stroke-width="0.0816433" stroke-miterlimit="10.43"/>
<defs>
<linearGradient id="paint0_linear" x1="51.698" y1="0.653183" x2="51.698" y2="3.3232" gradientUnits="userSpaceOnUse">
<stop stop-color="#A4FFFF"/>
<stop offset="1" stop-color="#ABB7E3" stop-opacity="0"/>
</linearGradient>
<linearGradient id="paint1_linear" x1="51.698" y1="0.653183" x2="51.698" y2="3.3232" gradientUnits="userSpaceOnUse">
<stop stop-color="#A4FFFF"/>
<stop offset="1" stop-color="#ABB7E3" stop-opacity="0"/>
</linearGradient>
<linearGradient id="paint2_linear" x1="109.552" y1="2.77013" x2="109.552" y2="5.42016" gradientUnits="userSpaceOnUse">
<stop stop-color="#A4FFFF"/>
<stop offset="1" stop-color="#ABB7E3" stop-opacity="0"/>
</linearGradient>
<linearGradient id="paint3_linear" x1="109.552" y1="2.77013" x2="109.552" y2="5.42016" gradientUnits="userSpaceOnUse">
<stop stop-color="#A4FFFF"/>
<stop offset="1" stop-color="#ABB7E3" stop-opacity="0"/>
</linearGradient>
<linearGradient id="paint4_linear" x1="31.8941" y1="7.3907" x2="31.8941" y2="10.0105" gradientUnits="userSpaceOnUse">
<stop stop-color="#A4FFFF"/>
<stop offset="1" stop-color="#ABB7E3" stop-opacity="0"/>
</linearGradient>
<linearGradient id="paint5_linear" x1="31.8941" y1="7.3907" x2="31.8941" y2="10.0105" gradientUnits="userSpaceOnUse">
<stop stop-color="#A4FFFF"/>
<stop offset="1" stop-color="#ABB7E3" stop-opacity="0"/>
</linearGradient>
<linearGradient id="paint6_linear" x1="18.0823" y1="9.98993" x2="18.0823" y2="12.7363" gradientUnits="userSpaceOnUse">
<stop stop-color="#A4FFFF"/>
<stop offset="1" stop-color="#ABB7E3" stop-opacity="0"/>
</linearGradient>
<linearGradient id="paint7_linear" x1="18.0823" y1="9.98993" x2="18.0823" y2="12.7363" gradientUnits="userSpaceOnUse">
<stop stop-color="#A4FFFF"/>
<stop offset="1" stop-color="#ABB7E3" stop-opacity="0"/>
</linearGradient>
<linearGradient id="paint8_linear" x1="223.373" y1="11.4346" x2="223.373" y2="13.9266" gradientUnits="userSpaceOnUse">
<stop stop-color="#A4FFFF"/>
<stop offset="1" stop-color="#ABB7E3" stop-opacity="0"/>
</linearGradient>
<linearGradient id="paint9_linear" x1="223.373" y1="11.4346" x2="223.373" y2="13.9266" gradientUnits="userSpaceOnUse">
<stop stop-color="#A4FFFF"/>
<stop offset="1" stop-color="#ABB7E3" stop-opacity="0"/>
</linearGradient>
<linearGradient id="paint10_linear" x1="188.846" y1="18.0775" x2="188.846" y2="20.6039" gradientUnits="userSpaceOnUse">
<stop stop-color="#A4FFFF"/>
<stop offset="1" stop-color="#ABB7E3" stop-opacity="0"/>
</linearGradient>
<linearGradient id="paint11_linear" x1="188.846" y1="18.0775" x2="188.846" y2="20.6039" gradientUnits="userSpaceOnUse">
<stop stop-color="#A4FFFF"/>
<stop offset="1" stop-color="#ABB7E3" stop-opacity="0"/>
</linearGradient>
<linearGradient id="paint12_linear" x1="123.416" y1="20.1959" x2="123.416" y2="37.9153" gradientUnits="userSpaceOnUse">
<stop stop-color="#A4FFFF"/>
<stop offset="1" stop-color="#ABB7E3" stop-opacity="0"/>
</linearGradient>
<linearGradient id="paint13_linear" x1="123.416" y1="20.1959" x2="123.416" y2="37.9153" gradientUnits="userSpaceOnUse">
<stop stop-color="#A4FFFF"/>
<stop offset="1" stop-color="#ABB7E3" stop-opacity="0"/>
</linearGradient>
<linearGradient id="paint14_linear" x1="86.1275" y1="20.9346" x2="86.1275" y2="23.7329" gradientUnits="userSpaceOnUse">
<stop stop-color="#A4FFFF"/>
<stop offset="1" stop-color="#ABB7E3" stop-opacity="0"/>
</linearGradient>
<linearGradient id="paint15_linear" x1="86.1275" y1="20.9346" x2="86.1275" y2="23.7329" gradientUnits="userSpaceOnUse">
<stop stop-color="#A4FFFF"/>
<stop offset="1" stop-color="#ABB7E3" stop-opacity="0"/>
</linearGradient>
<linearGradient id="paint16_linear" x1="249.485" y1="27.035" x2="249.485" y2="33.7531" gradientUnits="userSpaceOnUse">
<stop stop-color="#A4FFFF"/>
<stop offset="1" stop-color="#ABB7E3" stop-opacity="0"/>
</linearGradient>
<linearGradient id="paint17_linear" x1="249.485" y1="27.035" x2="249.485" y2="33.7531" gradientUnits="userSpaceOnUse">
<stop stop-color="#A4FFFF"/>
<stop offset="1" stop-color="#ABB7E3" stop-opacity="0"/>
</linearGradient>
<linearGradient id="paint18_linear" x1="199.654" y1="32.6656" x2="199.654" y2="35.7055" gradientUnits="userSpaceOnUse">
<stop stop-color="#A4FFFF"/>
<stop offset="1" stop-color="#ABB7E3" stop-opacity="0"/>
</linearGradient>
<linearGradient id="paint19_linear" x1="199.654" y1="32.6656" x2="199.654" y2="35.7055" gradientUnits="userSpaceOnUse">
<stop stop-color="#A4FFFF"/>
<stop offset="1" stop-color="#ABB7E3" stop-opacity="0"/>
</linearGradient>
<linearGradient id="paint20_linear" x1="82.248" y1="38.5272" x2="82.248" y2="41.146" gradientUnits="userSpaceOnUse">
<stop stop-color="#A4FFFF"/>
<stop offset="1" stop-color="#ABB7E3" stop-opacity="0"/>
</linearGradient>
<linearGradient id="paint21_linear" x1="82.248" y1="38.5272" x2="82.248" y2="41.146" gradientUnits="userSpaceOnUse">
<stop stop-color="#A4FFFF"/>
<stop offset="1" stop-color="#ABB7E3" stop-opacity="0"/>
</linearGradient>
<linearGradient id="paint22_linear" x1="219.852" y1="39.1147" x2="219.852" y2="41.5464" gradientUnits="userSpaceOnUse">
<stop stop-color="#A4FFFF"/>
<stop offset="1" stop-color="#ABB7E3" stop-opacity="0"/>
</linearGradient>
<linearGradient id="paint23_linear" x1="219.852" y1="39.1147" x2="219.852" y2="41.5464" gradientUnits="userSpaceOnUse">
<stop stop-color="#A4FFFF"/>
<stop offset="1" stop-color="#ABB7E3" stop-opacity="0"/>
</linearGradient>
<linearGradient id="paint24_linear" x1="22.8681" y1="45.174" x2="22.8681" y2="52.4003" gradientUnits="userSpaceOnUse">
<stop stop-color="#A4FFFF"/>
<stop offset="1" stop-color="#ABB7E3" stop-opacity="0"/>
</linearGradient>
<linearGradient id="paint25_linear" x1="22.8681" y1="45.174" x2="22.8681" y2="52.4003" gradientUnits="userSpaceOnUse">
<stop stop-color="#A4FFFF"/>
<stop offset="1" stop-color="#ABB7E3" stop-opacity="0"/>
</linearGradient>
<linearGradient id="paint26_linear" x1="172.373" y1="51.0447" x2="172.373" y2="55.6142" gradientUnits="userSpaceOnUse">
<stop stop-color="#A4FFFF"/>
<stop offset="1" stop-color="#ABB7E3" stop-opacity="0"/>
</linearGradient>
<linearGradient id="paint27_linear" x1="172.373" y1="51.0447" x2="172.373" y2="55.6142" gradientUnits="userSpaceOnUse">
<stop stop-color="#A4FFFF"/>
<stop offset="1" stop-color="#ABB7E3" stop-opacity="0"/>
</linearGradient>
<linearGradient id="paint28_linear" x1="309.753" y1="51.4287" x2="309.753" y2="53.6504" gradientUnits="userSpaceOnUse">
<stop stop-color="#A4FFFF"/>
<stop offset="1" stop-color="#ABB7E3" stop-opacity="0"/>
</linearGradient>
<linearGradient id="paint29_linear" x1="309.753" y1="51.4287" x2="309.753" y2="53.6504" gradientUnits="userSpaceOnUse">
<stop stop-color="#A4FFFF"/>
<stop offset="1" stop-color="#ABB7E3" stop-opacity="0"/>
</linearGradient>
<linearGradient id="paint30_linear" x1="212.338" y1="51.7768" x2="212.338" y2="54.1207" gradientUnits="userSpaceOnUse">
<stop stop-color="#A4FFFF"/>
<stop offset="1" stop-color="#ABB7E3" stop-opacity="0"/>
</linearGradient>
<linearGradient id="paint31_linear" x1="212.338" y1="51.7768" x2="212.338" y2="54.1207" gradientUnits="userSpaceOnUse">
<stop stop-color="#A4FFFF"/>
<stop offset="1" stop-color="#ABB7E3" stop-opacity="0"/>
</linearGradient>
<linearGradient id="paint32_linear" x1="393.566" y1="56.6358" x2="393.566" y2="59.0369" gradientUnits="userSpaceOnUse">
<stop stop-color="#A4FFFF"/>
<stop offset="1" stop-color="#ABB7E3" stop-opacity="0"/>
</linearGradient>
<linearGradient id="paint33_linear" x1="393.566" y1="56.6358" x2="393.566" y2="59.0369" gradientUnits="userSpaceOnUse">
<stop stop-color="#A4FFFF"/>
<stop offset="1" stop-color="#ABB7E3" stop-opacity="0"/>
</linearGradient>
<linearGradient id="paint34_linear" x1="362.498" y1="58.3014" x2="362.498" y2="60.7093" gradientUnits="userSpaceOnUse">
<stop stop-color="#A4FFFF"/>
<stop offset="1" stop-color="#ABB7E3" stop-opacity="0"/>
</linearGradient>
<linearGradient id="paint35_linear" x1="362.498" y1="58.3014" x2="362.498" y2="60.7093" gradientUnits="userSpaceOnUse">
<stop stop-color="#A4FFFF"/>
<stop offset="1" stop-color="#ABB7E3" stop-opacity="0"/>
</linearGradient>
<linearGradient id="paint36_linear" x1="163.184" y1="59.8402" x2="163.184" y2="83.4555" gradientUnits="userSpaceOnUse">
<stop stop-color="#A4FFFF"/>
<stop offset="1" stop-color="#ABB7E3" stop-opacity="0"/>
</linearGradient>
<linearGradient id="paint37_linear" x1="163.184" y1="59.8402" x2="163.184" y2="83.4555" gradientUnits="userSpaceOnUse">
<stop stop-color="#A4FFFF"/>
<stop offset="1" stop-color="#ABB7E3" stop-opacity="0"/>
</linearGradient>
<linearGradient id="paint38_linear" x1="205.983" y1="61.896" x2="205.983" y2="96.671" gradientUnits="userSpaceOnUse">
<stop stop-color="#A4FFFF"/>
<stop offset="1" stop-color="#ABB7E3" stop-opacity="0"/>
</linearGradient>
<linearGradient id="paint39_linear" x1="205.983" y1="61.896" x2="205.983" y2="96.671" gradientUnits="userSpaceOnUse">
<stop stop-color="#A4FFFF"/>
<stop offset="1" stop-color="#ABB7E3" stop-opacity="0"/>
</linearGradient>
<linearGradient id="paint40_linear" x1="244.831" y1="63.0127" x2="244.831" y2="65.454" gradientUnits="userSpaceOnUse">
<stop stop-color="#A4FFFF"/>
<stop offset="1" stop-color="#ABB7E3" stop-opacity="0"/>
</linearGradient>
<linearGradient id="paint41_linear" x1="244.831" y1="63.0127" x2="244.831" y2="65.454" gradientUnits="userSpaceOnUse">
<stop stop-color="#A4FFFF"/>
<stop offset="1" stop-color="#ABB7E3" stop-opacity="0"/>
</linearGradient>
<linearGradient id="paint42_linear" x1="321.089" y1="65.939" x2="321.089" y2="68.186" gradientUnits="userSpaceOnUse">
<stop stop-color="#A4FFFF"/>
<stop offset="1" stop-color="#ABB7E3" stop-opacity="0"/>
</linearGradient>
<linearGradient id="paint43_linear" x1="321.089" y1="65.939" x2="321.089" y2="68.186" gradientUnits="userSpaceOnUse">
<stop stop-color="#A4FFFF"/>
<stop offset="1" stop-color="#ABB7E3" stop-opacity="0"/>
</linearGradient>
<linearGradient id="paint44_linear" x1="87.2748" y1="68.3179" x2="87.2748" y2="115.045" gradientUnits="userSpaceOnUse">
<stop stop-color="#A4FFFF"/>
<stop offset="1" stop-color="#ABB7E3" stop-opacity="0"/>
</linearGradient>
<linearGradient id="paint45_linear" x1="87.2748" y1="68.3179" x2="87.2748" y2="115.045" gradientUnits="userSpaceOnUse">
<stop stop-color="#A4FFFF"/>
<stop offset="1" stop-color="#ABB7E3" stop-opacity="0"/>
</linearGradient>
<linearGradient id="paint46_linear" x1="69.1953" y1="69.6552" x2="69.1953" y2="72.3526" gradientUnits="userSpaceOnUse">
<stop stop-color="#A4FFFF"/>
<stop offset="1" stop-color="#ABB7E3" stop-opacity="0"/>
</linearGradient>
<linearGradient id="paint47_linear" x1="69.1953" y1="69.6552" x2="69.1953" y2="72.3526" gradientUnits="userSpaceOnUse">
<stop stop-color="#A4FFFF"/>
<stop offset="1" stop-color="#ABB7E3" stop-opacity="0"/>
</linearGradient>
<linearGradient id="paint48_linear" x1="374.992" y1="70.4715" x2="374.992" y2="72.9411" gradientUnits="userSpaceOnUse">
<stop stop-color="#A4FFFF"/>
<stop offset="1" stop-color="#ABB7E3" stop-opacity="0"/>
</linearGradient>
<linearGradient id="paint49_linear" x1="374.992" y1="70.4715" x2="374.992" y2="72.9411" gradientUnits="userSpaceOnUse">
<stop stop-color="#A4FFFF"/>
<stop offset="1" stop-color="#ABB7E3" stop-opacity="0"/>
</linearGradient>
<linearGradient id="paint50_linear" x1="134.006" y1="72.16" x2="134.006" y2="105.018" gradientUnits="userSpaceOnUse">
<stop stop-color="#A4FFFF"/>
<stop offset="1" stop-color="#ABB7E3" stop-opacity="0"/>
</linearGradient>
<linearGradient id="paint51_linear" x1="134.006" y1="72.16" x2="134.006" y2="105.018" gradientUnits="userSpaceOnUse">
<stop stop-color="#A4FFFF"/>
<stop offset="1" stop-color="#ABB7E3" stop-opacity="0"/>
</linearGradient>
<linearGradient id="paint52_linear" x1="181.297" y1="72.6174" x2="181.297" y2="75.2872" gradientUnits="userSpaceOnUse">
<stop stop-color="#A4FFFF"/>
<stop offset="1" stop-color="#ABB7E3" stop-opacity="0"/>
</linearGradient>
<linearGradient id="paint53_linear" x1="181.297" y1="72.6174" x2="181.297" y2="75.2872" gradientUnits="userSpaceOnUse">
<stop stop-color="#A4FFFF"/>
<stop offset="1" stop-color="#ABB7E3" stop-opacity="0"/>
</linearGradient>
<linearGradient id="paint54_linear" x1="34.2227" y1="72.426" x2="34.2227" y2="75.0872" gradientUnits="userSpaceOnUse">
<stop stop-color="#A4FFFF"/>
<stop offset="1" stop-color="#ABB7E3" stop-opacity="0"/>
</linearGradient>
<linearGradient id="paint55_linear" x1="34.2227" y1="72.426" x2="34.2227" y2="75.0872" gradientUnits="userSpaceOnUse">
<stop stop-color="#A4FFFF"/>
<stop offset="1" stop-color="#ABB7E3" stop-opacity="0"/>
</linearGradient>
<linearGradient id="paint56_linear" x1="30.4403" y1="74.613" x2="30.4403" y2="77.4701" gradientUnits="userSpaceOnUse">
<stop stop-color="#A4FFFF"/>
<stop offset="1" stop-color="#ABB7E3" stop-opacity="0"/>
</linearGradient>
<linearGradient id="paint57_linear" x1="30.4403" y1="74.613" x2="30.4403" y2="77.4701" gradientUnits="userSpaceOnUse">
<stop stop-color="#A4FFFF"/>
<stop offset="1" stop-color="#ABB7E3" stop-opacity="0"/>
</linearGradient>
<linearGradient id="paint58_linear" x1="160.755" y1="81.7852" x2="160.755" y2="84.112" gradientUnits="userSpaceOnUse">
<stop stop-color="#A4FFFF"/>
<stop offset="1" stop-color="#ABB7E3" stop-opacity="0"/>
</linearGradient>
<linearGradient id="paint59_linear" x1="160.755" y1="81.7852" x2="160.755" y2="84.112" gradientUnits="userSpaceOnUse">
<stop stop-color="#A4FFFF"/>
<stop offset="1" stop-color="#ABB7E3" stop-opacity="0"/>
</linearGradient>
<linearGradient id="paint60_linear" x1="232.247" y1="86.3304" x2="232.247" y2="88.8833" gradientUnits="userSpaceOnUse">
<stop stop-color="#A4FFFF"/>
<stop offset="1" stop-color="#ABB7E3" stop-opacity="0"/>
</linearGradient>
<linearGradient id="paint61_linear" x1="232.247" y1="86.3304" x2="232.247" y2="88.8833" gradientUnits="userSpaceOnUse">
<stop stop-color="#A4FFFF"/>
<stop offset="1" stop-color="#ABB7E3" stop-opacity="0"/>
</linearGradient>
<linearGradient id="paint62_linear" x1="420.677" y1="103.144" x2="420.677" y2="105.476" gradientUnits="userSpaceOnUse">
<stop stop-color="#A4FFFF"/>
<stop offset="1" stop-color="#ABB7E3" stop-opacity="0"/>
</linearGradient>
<linearGradient id="paint63_linear" x1="420.677" y1="103.144" x2="420.677" y2="105.476" gradientUnits="userSpaceOnUse">
<stop stop-color="#A4FFFF"/>
<stop offset="1" stop-color="#ABB7E3" stop-opacity="0"/>
</linearGradient>
<linearGradient id="paint64_linear" x1="352.949" y1="104.054" x2="352.949" y2="106.475" gradientUnits="userSpaceOnUse">
<stop stop-color="#A4FFFF"/>
<stop offset="1" stop-color="#ABB7E3" stop-opacity="0"/>
</linearGradient>
<linearGradient id="paint65_linear" x1="352.949" y1="104.054" x2="352.949" y2="106.475" gradientUnits="userSpaceOnUse">
<stop stop-color="#A4FFFF"/>
<stop offset="1" stop-color="#ABB7E3" stop-opacity="0"/>
</linearGradient>
<linearGradient id="paint66_linear" x1="197.26" y1="108.334" x2="197.26" y2="146.728" gradientUnits="userSpaceOnUse">
<stop stop-color="#A4FFFF"/>
<stop offset="1" stop-color="#ABB7E3" stop-opacity="0"/>
</linearGradient>
<linearGradient id="paint67_linear" x1="197.26" y1="108.334" x2="197.26" y2="146.728" gradientUnits="userSpaceOnUse">
<stop stop-color="#A4FFFF"/>
<stop offset="1" stop-color="#ABB7E3" stop-opacity="0"/>
</linearGradient>
<linearGradient id="paint68_linear" x1="132.543" y1="110.701" x2="132.543" y2="125.268" gradientUnits="userSpaceOnUse">
<stop stop-color="#A4FFFF"/>
<stop offset="1" stop-color="#ABB7E3" stop-opacity="0"/>
</linearGradient>
<linearGradient id="paint69_linear" x1="132.543" y1="110.701" x2="132.543" y2="125.268" gradientUnits="userSpaceOnUse">
<stop stop-color="#A4FFFF"/>
<stop offset="1" stop-color="#ABB7E3" stop-opacity="0"/>
</linearGradient>
<linearGradient id="paint70_linear" x1="241.612" y1="113.643" x2="241.612" y2="116.075" gradientUnits="userSpaceOnUse">
<stop stop-color="#A4FFFF"/>
<stop offset="1" stop-color="#ABB7E3" stop-opacity="0"/>
</linearGradient>
<linearGradient id="paint71_linear" x1="241.612" y1="113.643" x2="241.612" y2="116.075" gradientUnits="userSpaceOnUse">
<stop stop-color="#A4FFFF"/>
<stop offset="1" stop-color="#ABB7E3" stop-opacity="0"/>
</linearGradient>
<linearGradient id="paint72_linear" x1="265.166" y1="126.531" x2="265.166" y2="128.993" gradientUnits="userSpaceOnUse">
<stop stop-color="#A4FFFF"/>
<stop offset="1" stop-color="#ABB7E3" stop-opacity="0"/>
</linearGradient>
<linearGradient id="paint73_linear" x1="265.166" y1="126.531" x2="265.166" y2="128.993" gradientUnits="userSpaceOnUse">
<stop stop-color="#A4FFFF"/>
<stop offset="1" stop-color="#ABB7E3" stop-opacity="0"/>
</linearGradient>
<linearGradient id="paint74_linear" x1="155.223" y1="132.455" x2="155.223" y2="134.885" gradientUnits="userSpaceOnUse">
<stop stop-color="#A4FFFF"/>
<stop offset="1" stop-color="#ABB7E3" stop-opacity="0"/>
</linearGradient>
<linearGradient id="paint75_linear" x1="155.223" y1="132.455" x2="155.223" y2="134.885" gradientUnits="userSpaceOnUse">
<stop stop-color="#A4FFFF"/>
<stop offset="1" stop-color="#ABB7E3" stop-opacity="0"/>
</linearGradient>
<linearGradient id="paint76_linear" x1="17.2645" y1="137.181" x2="17.2645" y2="210.584" gradientUnits="userSpaceOnUse">
<stop stop-color="#A4FFFF"/>
<stop offset="1" stop-color="#ABB7E3" stop-opacity="0"/>
</linearGradient>
<linearGradient id="paint77_linear" x1="17.2645" y1="137.181" x2="17.2645" y2="210.584" gradientUnits="userSpaceOnUse">
<stop stop-color="#A4FFFF"/>
<stop offset="1" stop-color="#ABB7E3" stop-opacity="0"/>
</linearGradient>
<linearGradient id="paint78_linear" x1="211.818" y1="143.606" x2="211.818" y2="146.088" gradientUnits="userSpaceOnUse">
<stop stop-color="#A4FFFF"/>
<stop offset="1" stop-color="#ABB7E3" stop-opacity="0"/>
</linearGradient>
<linearGradient id="paint79_linear" x1="211.818" y1="143.606" x2="211.818" y2="146.088" gradientUnits="userSpaceOnUse">
<stop stop-color="#A4FFFF"/>
<stop offset="1" stop-color="#ABB7E3" stop-opacity="0"/>
</linearGradient>
<linearGradient id="paint80_linear" x1="277.364" y1="147.541" x2="277.364" y2="150.385" gradientUnits="userSpaceOnUse">
<stop stop-color="#A4FFFF"/>
<stop offset="1" stop-color="#ABB7E3" stop-opacity="0"/>
</linearGradient>
<linearGradient id="paint81_linear" x1="277.364" y1="147.541" x2="277.364" y2="150.385" gradientUnits="userSpaceOnUse">
<stop stop-color="#A4FFFF"/>
<stop offset="1" stop-color="#ABB7E3" stop-opacity="0"/>
</linearGradient>
<linearGradient id="paint82_linear" x1="29.6291" y1="150.001" x2="29.6291" y2="197.148" gradientUnits="userSpaceOnUse">
<stop stop-color="#A4FFFF"/>
<stop offset="1" stop-color="#ABB7E3" stop-opacity="0"/>
</linearGradient>
<linearGradient id="paint83_linear" x1="29.6291" y1="150.001" x2="29.6291" y2="197.148" gradientUnits="userSpaceOnUse">
<stop stop-color="#A4FFFF"/>
<stop offset="1" stop-color="#ABB7E3" stop-opacity="0"/>
</linearGradient>
<linearGradient id="paint84_linear" x1="284.813" y1="161.636" x2="284.813" y2="164.282" gradientUnits="userSpaceOnUse">
<stop stop-color="#A4FFFF"/>
<stop offset="1" stop-color="#ABB7E3" stop-opacity="0"/>
</linearGradient>
<linearGradient id="paint85_linear" x1="284.813" y1="161.636" x2="284.813" y2="164.282" gradientUnits="userSpaceOnUse">
<stop stop-color="#A4FFFF"/>
<stop offset="1" stop-color="#ABB7E3" stop-opacity="0"/>
</linearGradient>
<linearGradient id="paint86_linear" x1="80.0228" y1="171.372" x2="80.0228" y2="211.845" gradientUnits="userSpaceOnUse">
<stop stop-color="#A4FFFF"/>
<stop offset="1" stop-color="#ABB7E3" stop-opacity="0"/>
</linearGradient>
<linearGradient id="paint87_linear" x1="80.0228" y1="171.372" x2="80.0228" y2="211.845" gradientUnits="userSpaceOnUse">
<stop stop-color="#A4FFFF"/>
<stop offset="1" stop-color="#ABB7E3" stop-opacity="0"/>
</linearGradient>
<linearGradient id="paint88_linear" x1="115.871" y1="175.999" x2="115.871" y2="178.555" gradientUnits="userSpaceOnUse">
<stop stop-color="#A4FFFF"/>
<stop offset="1" stop-color="#ABB7E3" stop-opacity="0"/>
</linearGradient>
<linearGradient id="paint89_linear" x1="115.871" y1="175.999" x2="115.871" y2="178.555" gradientUnits="userSpaceOnUse">
<stop stop-color="#A4FFFF"/>
<stop offset="1" stop-color="#ABB7E3" stop-opacity="0"/>
</linearGradient>
<linearGradient id="paint90_linear" x1="242.732" y1="178.112" x2="242.732" y2="187.343" gradientUnits="userSpaceOnUse">
<stop stop-color="#A4FFFF"/>
<stop offset="1" stop-color="#ABB7E3" stop-opacity="0"/>
</linearGradient>
<linearGradient id="paint91_linear" x1="242.732" y1="178.112" x2="242.732" y2="187.343" gradientUnits="userSpaceOnUse">
<stop stop-color="#A4FFFF"/>
<stop offset="1" stop-color="#ABB7E3" stop-opacity="0"/>
</linearGradient>
<linearGradient id="paint92_linear" x1="280.99" y1="188.312" x2="280.99" y2="217.087" gradientUnits="userSpaceOnUse">
<stop stop-color="#A4FFFF"/>
<stop offset="1" stop-color="#ABB7E3" stop-opacity="0"/>
</linearGradient>
<linearGradient id="paint93_linear" x1="280.99" y1="188.312" x2="280.99" y2="217.087" gradientUnits="userSpaceOnUse">
<stop stop-color="#A4FFFF"/>
<stop offset="1" stop-color="#ABB7E3" stop-opacity="0"/>
</linearGradient>
<linearGradient id="paint94_linear" x1="352.744" y1="192.737" x2="352.744" y2="195.502" gradientUnits="userSpaceOnUse">
<stop stop-color="#A4FFFF"/>
<stop offset="1" stop-color="#ABB7E3" stop-opacity="0"/>
</linearGradient>
<linearGradient id="paint95_linear" x1="352.744" y1="192.737" x2="352.744" y2="195.502" gradientUnits="userSpaceOnUse">
<stop stop-color="#A4FFFF"/>
<stop offset="1" stop-color="#ABB7E3" stop-opacity="0"/>
</linearGradient>
<linearGradient id="paint96_linear" x1="26.9202" y1="193.446" x2="26.9202" y2="204.448" gradientUnits="userSpaceOnUse">
<stop stop-color="#A4FFFF"/>
<stop offset="1" stop-color="#ABB7E3" stop-opacity="0"/>
</linearGradient>
<linearGradient id="paint97_linear" x1="26.9202" y1="193.446" x2="26.9202" y2="204.448" gradientUnits="userSpaceOnUse">
<stop stop-color="#A4FFFF"/>
<stop offset="1" stop-color="#ABB7E3" stop-opacity="0"/>
</linearGradient>
<linearGradient id="paint98_linear" x1="325.35" y1="198.237" x2="325.35" y2="200.808" gradientUnits="userSpaceOnUse">
<stop stop-color="#A4FFFF"/>
<stop offset="1" stop-color="#ABB7E3" stop-opacity="0"/>
</linearGradient>
<linearGradient id="paint99_linear" x1="325.35" y1="198.237" x2="325.35" y2="200.808" gradientUnits="userSpaceOnUse">
<stop stop-color="#A4FFFF"/>
<stop offset="1" stop-color="#ABB7E3" stop-opacity="0"/>
</linearGradient>
<linearGradient id="paint100_linear" x1="306.264" y1="200.178" x2="306.264" y2="237.16" gradientUnits="userSpaceOnUse">
<stop stop-color="#A4FFFF"/>
<stop offset="1" stop-color="#ABB7E3" stop-opacity="0"/>
</linearGradient>
<linearGradient id="paint101_linear" x1="306.264" y1="200.178" x2="306.264" y2="237.16" gradientUnits="userSpaceOnUse">
<stop stop-color="#A4FFFF"/>
<stop offset="1" stop-color="#ABB7E3" stop-opacity="0"/>
</linearGradient>
<linearGradient id="paint102_linear" x1="10.2131" y1="224.301" x2="10.2131" y2="235.191" gradientUnits="userSpaceOnUse">
<stop stop-color="#A4FFFF"/>
<stop offset="1" stop-color="#ABB7E3" stop-opacity="0"/>
</linearGradient>
<linearGradient id="paint103_linear" x1="10.2131" y1="224.301" x2="10.2131" y2="235.191" gradientUnits="userSpaceOnUse">
<stop stop-color="#A4FFFF"/>
<stop offset="1" stop-color="#ABB7E3" stop-opacity="0"/>
</linearGradient>
<linearGradient id="paint104_linear" x1="293.803" y1="229.29" x2="293.803" y2="279.467" gradientUnits="userSpaceOnUse">
<stop stop-color="#A4FFFF"/>
<stop offset="1" stop-color="#ABB7E3" stop-opacity="0"/>
</linearGradient>
<linearGradient id="paint105_linear" x1="293.803" y1="229.29" x2="293.803" y2="279.467" gradientUnits="userSpaceOnUse">
<stop stop-color="#A4FFFF"/>
<stop offset="1" stop-color="#ABB7E3" stop-opacity="0"/>
</linearGradient>
<linearGradient id="paint106_linear" x1="94.2057" y1="237.018" x2="94.2057" y2="239.787" gradientUnits="userSpaceOnUse">
<stop stop-color="#A4FFFF"/>
<stop offset="1" stop-color="#ABB7E3" stop-opacity="0"/>
</linearGradient>
<linearGradient id="paint107_linear" x1="94.2057" y1="237.018" x2="94.2057" y2="239.787" gradientUnits="userSpaceOnUse">
<stop stop-color="#A4FFFF"/>
<stop offset="1" stop-color="#ABB7E3" stop-opacity="0"/>
</linearGradient>
<linearGradient id="paint108_linear" x1="362.611" y1="240.098" x2="362.611" y2="242.784" gradientUnits="userSpaceOnUse">
<stop stop-color="#A4FFFF"/>
<stop offset="1" stop-color="#ABB7E3" stop-opacity="0"/>
</linearGradient>
<linearGradient id="paint109_linear" x1="362.611" y1="240.098" x2="362.611" y2="242.784" gradientUnits="userSpaceOnUse">
<stop stop-color="#A4FFFF"/>
<stop offset="1" stop-color="#ABB7E3" stop-opacity="0"/>
</linearGradient>
<linearGradient id="paint110_linear" x1="256.712" y1="241.988" x2="256.712" y2="244.652" gradientUnits="userSpaceOnUse">
<stop stop-color="#A4FFFF"/>
<stop offset="1" stop-color="#ABB7E3" stop-opacity="0"/>
</linearGradient>
<linearGradient id="paint111_linear" x1="256.712" y1="241.988" x2="256.712" y2="244.652" gradientUnits="userSpaceOnUse">
<stop stop-color="#A4FFFF"/>
<stop offset="1" stop-color="#ABB7E3" stop-opacity="0"/>
</linearGradient>
<linearGradient id="paint112_linear" x1="108.012" y1="243.242" x2="108.012" y2="246.145" gradientUnits="userSpaceOnUse">
<stop stop-color="#A4FFFF"/>
<stop offset="1" stop-color="#ABB7E3" stop-opacity="0"/>
</linearGradient>
<linearGradient id="paint113_linear" x1="108.012" y1="243.242" x2="108.012" y2="246.145" gradientUnits="userSpaceOnUse">
<stop stop-color="#A4FFFF"/>
<stop offset="1" stop-color="#ABB7E3" stop-opacity="0"/>
</linearGradient>
<linearGradient id="paint114_linear" x1="247.416" y1="243.835" x2="247.416" y2="246.278" gradientUnits="userSpaceOnUse">
<stop stop-color="#A4FFFF"/>
<stop offset="1" stop-color="#ABB7E3" stop-opacity="0"/>
</linearGradient>
<linearGradient id="paint115_linear" x1="247.416" y1="243.835" x2="247.416" y2="246.278" gradientUnits="userSpaceOnUse">
<stop stop-color="#A4FFFF"/>
<stop offset="1" stop-color="#ABB7E3" stop-opacity="0"/>
</linearGradient>
<linearGradient id="paint116_linear" x1="289.014" y1="244.266" x2="289.014" y2="246.869" gradientUnits="userSpaceOnUse">
<stop stop-color="#A4FFFF"/>
<stop offset="1" stop-color="#ABB7E3" stop-opacity="0"/>
</linearGradient>
<linearGradient id="paint117_linear" x1="289.014" y1="244.266" x2="289.014" y2="246.869" gradientUnits="userSpaceOnUse">
<stop stop-color="#A4FFFF"/>
<stop offset="1" stop-color="#ABB7E3" stop-opacity="0"/>
</linearGradient>
<linearGradient id="paint118_linear" x1="326.135" y1="254.532" x2="326.135" y2="257.502" gradientUnits="userSpaceOnUse">
<stop stop-color="#A4FFFF"/>
<stop offset="1" stop-color="#ABB7E3" stop-opacity="0"/>
</linearGradient>
<linearGradient id="paint119_linear" x1="326.135" y1="254.532" x2="326.135" y2="257.502" gradientUnits="userSpaceOnUse">
<stop stop-color="#A4FFFF"/>
<stop offset="1" stop-color="#ABB7E3" stop-opacity="0"/>
</linearGradient>
<linearGradient id="paint120_linear" x1="364.777" y1="274.007" x2="364.777" y2="276.963" gradientUnits="userSpaceOnUse">
<stop stop-color="#A4FFFF"/>
<stop offset="1" stop-color="#ABB7E3" stop-opacity="0"/>
</linearGradient>
<linearGradient id="paint121_linear" x1="364.777" y1="274.007" x2="364.777" y2="276.963" gradientUnits="userSpaceOnUse">
<stop stop-color="#A4FFFF"/>
<stop offset="1" stop-color="#ABB7E3" stop-opacity="0"/>
</linearGradient>
<linearGradient id="paint122_linear" x1="219.267" y1="276.034" x2="219.267" y2="326.551" gradientUnits="userSpaceOnUse">
<stop stop-color="#A4FFFF"/>
<stop offset="1" stop-color="#ABB7E3" stop-opacity="0"/>
</linearGradient>
<linearGradient id="paint123_linear" x1="219.267" y1="276.034" x2="219.267" y2="326.551" gradientUnits="userSpaceOnUse">
<stop stop-color="#A4FFFF"/>
<stop offset="1" stop-color="#ABB7E3" stop-opacity="0"/>
</linearGradient>
<linearGradient id="paint124_linear" x1="324.661" y1="277.404" x2="324.661" y2="279.867" gradientUnits="userSpaceOnUse">
<stop stop-color="#A4FFFF"/>
<stop offset="1" stop-color="#ABB7E3" stop-opacity="0"/>
</linearGradient>
<linearGradient id="paint125_linear" x1="324.661" y1="277.404" x2="324.661" y2="279.867" gradientUnits="userSpaceOnUse">
<stop stop-color="#A4FFFF"/>
<stop offset="1" stop-color="#ABB7E3" stop-opacity="0"/>
</linearGradient>
<linearGradient id="paint126_linear" x1="146.622" y1="277.445" x2="146.622" y2="280.069" gradientUnits="userSpaceOnUse">
<stop stop-color="#A4FFFF"/>
<stop offset="1" stop-color="#ABB7E3" stop-opacity="0"/>
</linearGradient>
<linearGradient id="paint127_linear" x1="146.622" y1="277.445" x2="146.622" y2="280.069" gradientUnits="userSpaceOnUse">
<stop stop-color="#A4FFFF"/>
<stop offset="1" stop-color="#ABB7E3" stop-opacity="0"/>
</linearGradient>
<linearGradient id="paint128_linear" x1="236.925" y1="288.64" x2="236.925" y2="291.054" gradientUnits="userSpaceOnUse">
<stop stop-color="#A4FFFF"/>
<stop offset="1" stop-color="#ABB7E3" stop-opacity="0"/>
</linearGradient>
<linearGradient id="paint129_linear" x1="236.925" y1="288.64" x2="236.925" y2="291.054" gradientUnits="userSpaceOnUse">
<stop stop-color="#A4FFFF"/>
<stop offset="1" stop-color="#ABB7E3" stop-opacity="0"/>
</linearGradient>
<linearGradient id="paint130_linear" x1="332.782" y1="290.257" x2="332.782" y2="293.034" gradientUnits="userSpaceOnUse">
<stop stop-color="#A4FFFF"/>
<stop offset="1" stop-color="#ABB7E3" stop-opacity="0"/>
</linearGradient>
<linearGradient id="paint131_linear" x1="332.782" y1="290.257" x2="332.782" y2="293.034" gradientUnits="userSpaceOnUse">
<stop stop-color="#A4FFFF"/>
<stop offset="1" stop-color="#ABB7E3" stop-opacity="0"/>
</linearGradient>
<linearGradient id="paint132_linear" x1="392.139" y1="295" x2="392.139" y2="297.69" gradientUnits="userSpaceOnUse">
<stop stop-color="#A4FFFF"/>
<stop offset="1" stop-color="#ABB7E3" stop-opacity="0"/>
</linearGradient>
<linearGradient id="paint133_linear" x1="392.139" y1="295" x2="392.139" y2="297.69" gradientUnits="userSpaceOnUse">
<stop stop-color="#A4FFFF"/>
<stop offset="1" stop-color="#ABB7E3" stop-opacity="0"/>
</linearGradient>
<linearGradient id="paint134_linear" x1="157.193" y1="304.376" x2="157.193" y2="306.848" gradientUnits="userSpaceOnUse">
<stop stop-color="#A4FFFF"/>
<stop offset="1" stop-color="#ABB7E3" stop-opacity="0"/>
</linearGradient>
<linearGradient id="paint135_linear" x1="157.193" y1="304.376" x2="157.193" y2="306.848" gradientUnits="userSpaceOnUse">
<stop stop-color="#A4FFFF"/>
<stop offset="1" stop-color="#ABB7E3" stop-opacity="0"/>
</linearGradient>
<linearGradient id="paint136_linear" x1="376.953" y1="313.828" x2="376.953" y2="316.887" gradientUnits="userSpaceOnUse">
<stop stop-color="#A4FFFF"/>
<stop offset="1" stop-color="#ABB7E3" stop-opacity="0"/>
</linearGradient>
<linearGradient id="paint137_linear" x1="376.953" y1="313.828" x2="376.953" y2="316.887" gradientUnits="userSpaceOnUse">
<stop stop-color="#A4FFFF"/>
<stop offset="1" stop-color="#ABB7E3" stop-opacity="0"/>
</linearGradient>
<linearGradient id="paint138_linear" x1="157.09" y1="315.108" x2="157.09" y2="321.601" gradientUnits="userSpaceOnUse">
<stop stop-color="#A4FFFF"/>
<stop offset="1" stop-color="#ABB7E3" stop-opacity="0"/>
</linearGradient>
<linearGradient id="paint139_linear" x1="157.09" y1="315.108" x2="157.09" y2="321.601" gradientUnits="userSpaceOnUse">
<stop stop-color="#A4FFFF"/>
<stop offset="1" stop-color="#ABB7E3" stop-opacity="0"/>
</linearGradient>
<linearGradient id="paint140_linear" x1="227.024" y1="316.529" x2="227.024" y2="319.281" gradientUnits="userSpaceOnUse">
<stop stop-color="#A4FFFF"/>
<stop offset="1" stop-color="#ABB7E3" stop-opacity="0"/>
</linearGradient>
<linearGradient id="paint141_linear" x1="227.024" y1="316.529" x2="227.024" y2="319.281" gradientUnits="userSpaceOnUse">
<stop stop-color="#A4FFFF"/>
<stop offset="1" stop-color="#ABB7E3" stop-opacity="0"/>
</linearGradient>
<linearGradient id="paint142_linear" x1="181.317" y1="317.197" x2="181.317" y2="319.599" gradientUnits="userSpaceOnUse">
<stop stop-color="#A4FFFF"/>
<stop offset="1" stop-color="#ABB7E3" stop-opacity="0"/>
</linearGradient>
<linearGradient id="paint143_linear" x1="181.317" y1="317.197" x2="181.317" y2="319.599" gradientUnits="userSpaceOnUse">
<stop stop-color="#A4FFFF"/>
<stop offset="1" stop-color="#ABB7E3" stop-opacity="0"/>
</linearGradient>
<linearGradient id="paint144_linear" x1="346.56" y1="326.422" x2="346.56" y2="329.317" gradientUnits="userSpaceOnUse">
<stop stop-color="#A4FFFF"/>
<stop offset="1" stop-color="#ABB7E3" stop-opacity="0"/>
</linearGradient>
<linearGradient id="paint145_linear" x1="346.56" y1="326.422" x2="346.56" y2="329.317" gradientUnits="userSpaceOnUse">
<stop stop-color="#A4FFFF"/>
<stop offset="1" stop-color="#ABB7E3" stop-opacity="0"/>
</linearGradient>
<linearGradient id="paint146_linear" x1="350.332" y1="326.998" x2="350.332" y2="329.674" gradientUnits="userSpaceOnUse">
<stop stop-color="#A4FFFF"/>
<stop offset="1" stop-color="#ABB7E3" stop-opacity="0"/>
</linearGradient>
<linearGradient id="paint147_linear" x1="350.332" y1="326.998" x2="350.332" y2="329.674" gradientUnits="userSpaceOnUse">
<stop stop-color="#A4FFFF"/>
<stop offset="1" stop-color="#ABB7E3" stop-opacity="0"/>
</linearGradient>
<linearGradient id="paint148_linear" x1="474.226" y1="327.477" x2="474.226" y2="330.184" gradientUnits="userSpaceOnUse">
<stop stop-color="#A4FFFF"/>
<stop offset="1" stop-color="#ABB7E3" stop-opacity="0"/>
</linearGradient>
<linearGradient id="paint149_linear" x1="474.226" y1="327.477" x2="474.226" y2="330.184" gradientUnits="userSpaceOnUse">
<stop stop-color="#A4FFFF"/>
<stop offset="1" stop-color="#ABB7E3" stop-opacity="0"/>
</linearGradient>
<linearGradient id="paint150_linear" x1="439.076" y1="329.374" x2="439.076" y2="332.12" gradientUnits="userSpaceOnUse">
<stop stop-color="#A4FFFF"/>
<stop offset="1" stop-color="#ABB7E3" stop-opacity="0"/>
</linearGradient>
<linearGradient id="paint151_linear" x1="439.076" y1="329.374" x2="439.076" y2="332.12" gradientUnits="userSpaceOnUse">
<stop stop-color="#A4FFFF"/>
<stop offset="1" stop-color="#ABB7E3" stop-opacity="0"/>
</linearGradient>
<linearGradient id="paint152_linear" x1="235.383" y1="331.492" x2="235.383" y2="353.912" gradientUnits="userSpaceOnUse">
<stop stop-color="#A4FFFF"/>
<stop offset="1" stop-color="#ABB7E3" stop-opacity="0"/>
</linearGradient>
<linearGradient id="paint153_linear" x1="235.383" y1="331.492" x2="235.383" y2="353.912" gradientUnits="userSpaceOnUse">
<stop stop-color="#A4FFFF"/>
<stop offset="1" stop-color="#ABB7E3" stop-opacity="0"/>
</linearGradient>
<linearGradient id="paint154_linear" x1="217.818" y1="346.499" x2="217.818" y2="348.956" gradientUnits="userSpaceOnUse">
<stop stop-color="#A4FFFF"/>
<stop offset="1" stop-color="#ABB7E3" stop-opacity="0"/>
</linearGradient>
<linearGradient id="paint155_linear" x1="217.818" y1="346.499" x2="217.818" y2="348.956" gradientUnits="userSpaceOnUse">
<stop stop-color="#A4FFFF"/>
<stop offset="1" stop-color="#ABB7E3" stop-opacity="0"/>
</linearGradient>
<linearGradient id="paint156_linear" x1="179.477" y1="367.953" x2="179.477" y2="370.595" gradientUnits="userSpaceOnUse">
<stop stop-color="#A4FFFF"/>
<stop offset="1" stop-color="#ABB7E3" stop-opacity="0"/>
</linearGradient>
<linearGradient id="paint157_linear" x1="179.477" y1="367.953" x2="179.477" y2="370.595" gradientUnits="userSpaceOnUse">
<stop stop-color="#A4FFFF"/>
<stop offset="1" stop-color="#ABB7E3" stop-opacity="0"/>
</linearGradient>
<linearGradient id="paint158_linear" x1="499.404" y1="369.434" x2="499.404" y2="372.108" gradientUnits="userSpaceOnUse">
<stop stop-color="#A4FFFF"/>
<stop offset="1" stop-color="#ABB7E3" stop-opacity="0"/>
</linearGradient>
<linearGradient id="paint159_linear" x1="499.404" y1="369.434" x2="499.404" y2="372.108" gradientUnits="userSpaceOnUse">
<stop stop-color="#A4FFFF"/>
<stop offset="1" stop-color="#ABB7E3" stop-opacity="0"/>
</linearGradient>
<linearGradient id="paint160_linear" x1="440.778" y1="369.662" x2="440.778" y2="372.601" gradientUnits="userSpaceOnUse">
<stop stop-color="#A4FFFF"/>
<stop offset="1" stop-color="#ABB7E3" stop-opacity="0"/>
</linearGradient>
<linearGradient id="paint161_linear" x1="440.778" y1="369.662" x2="440.778" y2="372.601" gradientUnits="userSpaceOnUse">
<stop stop-color="#A4FFFF"/>
<stop offset="1" stop-color="#ABB7E3" stop-opacity="0"/>
</linearGradient>
<linearGradient id="paint162_linear" x1="317.853" y1="377.952" x2="317.853" y2="383.357" gradientUnits="userSpaceOnUse">
<stop stop-color="#A4FFFF"/>
<stop offset="1" stop-color="#ABB7E3" stop-opacity="0"/>
</linearGradient>
<linearGradient id="paint163_linear" x1="317.853" y1="377.952" x2="317.853" y2="383.357" gradientUnits="userSpaceOnUse">
<stop stop-color="#A4FFFF"/>
<stop offset="1" stop-color="#ABB7E3" stop-opacity="0"/>
</linearGradient>
<linearGradient id="paint164_linear" x1="371.697" y1="384.637" x2="371.697" y2="407.064" gradientUnits="userSpaceOnUse">
<stop stop-color="#A4FFFF"/>
<stop offset="1" stop-color="#ABB7E3" stop-opacity="0"/>
</linearGradient>
<linearGradient id="paint165_linear" x1="371.697" y1="384.637" x2="371.697" y2="407.064" gradientUnits="userSpaceOnUse">
<stop stop-color="#A4FFFF"/>
<stop offset="1" stop-color="#ABB7E3" stop-opacity="0"/>
</linearGradient>
<linearGradient id="paint166_linear" x1="505.95" y1="388.489" x2="505.95" y2="404.05" gradientUnits="userSpaceOnUse">
<stop stop-color="#A4FFFF"/>
<stop offset="1" stop-color="#ABB7E3" stop-opacity="0"/>
</linearGradient>
<linearGradient id="paint167_linear" x1="505.95" y1="388.489" x2="505.95" y2="404.05" gradientUnits="userSpaceOnUse">
<stop stop-color="#A4FFFF"/>
<stop offset="1" stop-color="#ABB7E3" stop-opacity="0"/>
</linearGradient>
<linearGradient id="paint168_linear" x1="304.947" y1="392.524" x2="304.947" y2="395.059" gradientUnits="userSpaceOnUse">
<stop stop-color="#A4FFFF"/>
<stop offset="1" stop-color="#ABB7E3" stop-opacity="0"/>
</linearGradient>
<linearGradient id="paint169_linear" x1="304.947" y1="392.524" x2="304.947" y2="395.059" gradientUnits="userSpaceOnUse">
<stop stop-color="#A4FFFF"/>
<stop offset="1" stop-color="#ABB7E3" stop-opacity="0"/>
</linearGradient>
<linearGradient id="paint170_linear" x1="368.271" y1="404.671" x2="368.271" y2="407.366" gradientUnits="userSpaceOnUse">
<stop stop-color="#A4FFFF"/>
<stop offset="1" stop-color="#ABB7E3" stop-opacity="0"/>
</linearGradient>
<linearGradient id="paint171_linear" x1="368.271" y1="404.671" x2="368.271" y2="407.366" gradientUnits="userSpaceOnUse">
<stop stop-color="#A4FFFF"/>
<stop offset="1" stop-color="#ABB7E3" stop-opacity="0"/>
</linearGradient>
<linearGradient id="paint172_linear" x1="299.715" y1="404.912" x2="299.715" y2="407.552" gradientUnits="userSpaceOnUse">
<stop stop-color="#A4FFFF"/>
<stop offset="1" stop-color="#ABB7E3" stop-opacity="0"/>
</linearGradient>
<linearGradient id="paint173_linear" x1="299.715" y1="404.912" x2="299.715" y2="407.552" gradientUnits="userSpaceOnUse">
<stop stop-color="#A4FFFF"/>
<stop offset="1" stop-color="#ABB7E3" stop-opacity="0"/>
</linearGradient>
<linearGradient id="paint174_linear" x1="546.499" y1="411.69" x2="546.499" y2="416.784" gradientUnits="userSpaceOnUse">
<stop stop-color="#A4FFFF"/>
<stop offset="1" stop-color="#ABB7E3" stop-opacity="0"/>
</linearGradient>
<linearGradient id="paint175_linear" x1="546.499" y1="411.69" x2="546.499" y2="416.784" gradientUnits="userSpaceOnUse">
<stop stop-color="#A4FFFF"/>
<stop offset="1" stop-color="#ABB7E3" stop-opacity="0"/>
</linearGradient>
<linearGradient id="paint176_linear" x1="346.785" y1="417.043" x2="346.785" y2="419.488" gradientUnits="userSpaceOnUse">
<stop stop-color="#A4FFFF"/>
<stop offset="1" stop-color="#ABB7E3" stop-opacity="0"/>
</linearGradient>
<linearGradient id="paint177_linear" x1="346.785" y1="417.043" x2="346.785" y2="419.488" gradientUnits="userSpaceOnUse">
<stop stop-color="#A4FFFF"/>
<stop offset="1" stop-color="#ABB7E3" stop-opacity="0"/>
</linearGradient>
<linearGradient id="paint178_linear" x1="310.677" y1="444.622" x2="310.677" y2="451.053" gradientUnits="userSpaceOnUse">
<stop stop-color="#A4FFFF"/>
<stop offset="1" stop-color="#ABB7E3" stop-opacity="0"/>
</linearGradient>
<linearGradient id="paint179_linear" x1="310.677" y1="444.622" x2="310.677" y2="451.053" gradientUnits="userSpaceOnUse">
<stop stop-color="#A4FFFF"/>
<stop offset="1" stop-color="#ABB7E3" stop-opacity="0"/>
</linearGradient>
<linearGradient id="paint180_linear" x1="580.229" y1="456.86" x2="580.229" y2="463.423" gradientUnits="userSpaceOnUse">
<stop stop-color="#A4FFFF"/>
<stop offset="1" stop-color="#ABB7E3" stop-opacity="0"/>
</linearGradient>
<linearGradient id="paint181_linear" x1="580.229" y1="456.86" x2="580.229" y2="463.423" gradientUnits="userSpaceOnUse">
<stop stop-color="#A4FFFF"/>
<stop offset="1" stop-color="#ABB7E3" stop-opacity="0"/>
</linearGradient>
<linearGradient id="paint182_linear" x1="287.257" y1="465.559" x2="287.257" y2="468.223" gradientUnits="userSpaceOnUse">
<stop stop-color="#A4FFFF"/>
<stop offset="1" stop-color="#ABB7E3" stop-opacity="0"/>
</linearGradient>
<linearGradient id="paint183_linear" x1="287.257" y1="465.559" x2="287.257" y2="468.223" gradientUnits="userSpaceOnUse">
<stop stop-color="#A4FFFF"/>
<stop offset="1" stop-color="#ABB7E3" stop-opacity="0"/>
</linearGradient>
<linearGradient id="paint184_linear" x1="638.648" y1="472.313" x2="638.648" y2="484.447" gradientUnits="userSpaceOnUse">
<stop stop-color="#A4FFFF"/>
<stop offset="1" stop-color="#ABB7E3" stop-opacity="0"/>
</linearGradient>
<linearGradient id="paint185_linear" x1="638.648" y1="472.313" x2="638.648" y2="484.447" gradientUnits="userSpaceOnUse">
<stop stop-color="#A4FFFF"/>
<stop offset="1" stop-color="#ABB7E3" stop-opacity="0"/>
</linearGradient>
<linearGradient id="paint186_linear" x1="564.536" y1="493.132" x2="564.536" y2="495.744" gradientUnits="userSpaceOnUse">
<stop stop-color="#A4FFFF"/>
<stop offset="1" stop-color="#ABB7E3" stop-opacity="0"/>
</linearGradient>
<linearGradient id="paint187_linear" x1="564.536" y1="493.132" x2="564.536" y2="495.744" gradientUnits="userSpaceOnUse">
<stop stop-color="#A4FFFF"/>
<stop offset="1" stop-color="#ABB7E3" stop-opacity="0"/>
</linearGradient>
<linearGradient id="paint188_linear" x1="583.335" y1="493.374" x2="583.335" y2="519.836" gradientUnits="userSpaceOnUse">
<stop stop-color="#A4FFFF"/>
<stop offset="1" stop-color="#ABB7E3" stop-opacity="0"/>
</linearGradient>
<linearGradient id="paint189_linear" x1="583.335" y1="493.374" x2="583.335" y2="519.836" gradientUnits="userSpaceOnUse">
<stop stop-color="#A4FFFF"/>
<stop offset="1" stop-color="#ABB7E3" stop-opacity="0"/>
</linearGradient>
<linearGradient id="paint190_linear" x1="582.938" y1="551.295" x2="582.938" y2="557.395" gradientUnits="userSpaceOnUse">
<stop stop-color="#A4FFFF"/>
<stop offset="1" stop-color="#ABB7E3" stop-opacity="0"/>
</linearGradient>
<linearGradient id="paint191_linear" x1="582.938" y1="551.295" x2="582.938" y2="557.395" gradientUnits="userSpaceOnUse">
<stop stop-color="#A4FFFF"/>
<stop offset="1" stop-color="#ABB7E3" stop-opacity="0"/>
</linearGradient>
</defs>
</svg>
